<svg width="321" height="321" viewBox="0 0 321 321" fill="none" xmlns="http://www.w3.org/2000/svg">
<path d="M117.031 133.75C117.031 122.221 121.611 111.165 129.763 103.013C137.915 94.861 148.971 90.2813 160.5 90.2812C172.029 90.2813 183.085 94.861 191.237 103.013C199.389 111.165 203.969 122.221 203.969 133.75C203.969 145.279 199.389 156.335 191.237 164.487C183.085 172.639 172.029 177.219 160.5 177.219C148.971 177.219 137.915 172.639 129.763 164.487C121.611 156.335 117.031 145.279 117.031 133.75Z" fill="#FDFCDF" fill-opacity="0.3"/>
<path fill-rule="evenodd" clip-rule="evenodd" d="M50.4773 118.73C52.696 91.8405 64.9442 66.7684 84.7905 48.4905C104.637 30.2125 130.63 20.0651 157.611 20.0625H163.389C190.37 20.0651 216.363 30.2125 236.21 48.4905C256.056 66.7684 268.304 91.8405 270.523 118.73C273.001 148.75 263.733 178.56 244.669 201.882L180.563 280.286C178.133 283.26 175.072 285.657 171.602 287.303C168.133 288.948 164.34 289.802 160.5 289.802C156.66 289.802 152.867 288.948 149.398 287.303C145.928 285.657 142.867 283.26 140.438 280.286L76.3445 201.882C57.2759 178.562 48.0023 148.752 50.4773 118.73ZM160.5 70.2187C143.65 70.2187 127.491 76.9122 115.577 88.8266C103.662 100.741 96.9688 116.9 96.9688 133.75C96.9688 150.6 103.662 166.759 115.577 178.673C127.491 190.588 143.65 197.281 160.5 197.281C177.35 197.281 193.509 190.588 205.423 178.673C217.338 166.759 224.031 150.6 224.031 133.75C224.031 116.9 217.338 100.741 205.423 88.8266C193.509 76.9122 177.35 70.2187 160.5 70.2187Z" fill="#FDFCDF" fill-opacity="0.3"/>
</svg>
