<svg width="80" height="80" viewBox="0 0 80 80" fill="none" xmlns="http://www.w3.org/2000/svg">
<g clip-path="url(#clip0_170_3134)">
<path d="M56.375 52.875C57.125 52.875 57.75 52.625 58.25 52.25C58.625 51.875 58.875 51.375 58.875 50.875V45.375C50.75 39.5 44.25 28.75 44.25 18.625C44.25 9 52 1.25 61.5 1.25C71 1.25 78.75 9 78.75 18.5C78.75 28.625 72.375 39 64.5 45V50.75C64.5 52.875 63.5 54.875 62 56.25C60.5 57.625 58.5 58.5 56.375 58.5H45.25C44.125 58.5 42.75 59.25 42.75 60.625C42.75 61.875 44 62.625 45.125 62.75H70.5C75 62.75 78.625 66.375 78.625 70.875C78.625 75.375 75 79 70.5 79H18.375C17.125 79 9.875 73.75 5.5 66C3 61.625 1.125 56.375 1.125 50.875C1.125 41.375 8.875 33.625 18.375 33.625C27.875 33.625 35.625 41.375 35.625 50.875C35.625 56.5 33.75 61.625 31.25 66C29.625 68.875 27.625 71.375 25.625 73.375H70.5C71.875 73.375 73 72.25 73 70.875C73 69.5 71.875 68.375 70.5 68.375C62.125 68.375 53.25 68.625 44.875 68.375C40.75 68.25 37.125 65 37.125 60.625C37.125 56.25 41 52.875 45.25 52.875H56.375Z" fill="#E0786C"/>
<path d="M56.375 51.625C56.875 51.625 57.625 51.375 57.625 50.75V45.875C53.5 42.75 49.75 38.375 47.125 33.625C44.5 28.875 43 23.625 43 18.5C43 8.25 51.25 0 61.5 0C71.75 0 80 8.25 80 18.5C80 23.625 78.5 28.75 76 33.375C73.375 38.125 69.875 42.375 65.75 45.625V50.875C65.75 55.875 61.375 59.75 56.5 59.75H45.375C44.875 59.75 44.125 60 44.125 60.625C44.125 61.25 44.875 61.5 45.375 61.5H70.75C75.875 61.5 80 65.75 80 70.75C80 75.875 75.875 80 70.75 80H18.375C17.375 80 14.125 78 10.75 74.625C6.25 70.125 2.875 64.625 1.125 58.5C-2.5 45.75 4 32.125 18.5 32.125C32.625 32.125 39.5 45.5 35.875 58.5C34.5 63.5 31.875 68.125 28.625 72H70.875C71.625 72 72.125 71.375 72.125 70.75C72.125 70 71.625 69.5 70.875 69.5C62.375 69.5 53.75 69.75 45.25 69.5C40.375 69.375 36.25 65.5 36.25 60.625C36.25 55.625 40.625 51.75 45.5 51.75H56.375V51.625ZM56.375 54H45.25C41.625 54 38.375 56.75 38.375 60.5C38.375 64.125 41.5 66.875 45 67C53.5 67.25 62 67 70.5 67C72.5 67 74.125 68.625 74.125 70.625C74.125 72.625 72.5 74.25 70.5 74.25H22.875L24.875 72.25C28.75 68.125 31.875 63.125 33.375 57.625C36.625 46.25 30.875 34.375 18.375 34.375C5.5 34.375 0.124996 46.375 3.375 57.625C5 63.5 8.375 68.625 12.5 72.875C15.375 75.875 17.875 77.625 18.375 77.625H70.625C74.375 77.625 77.5 74.5 77.5 70.75C77.5 67 74.375 63.875 70.625 63.875H45.25C43.375 63.875 41.625 62.5 41.625 60.625C41.625 58.625 43.5 57.375 45.25 57.375H56.375C59.875 57.375 63.25 54.625 63.25 50.875V44.625C67.625 39.75 70.125 38.875 73.75 32.25C76.125 28 77.5 23.25 77.5 18.5C77.5 9.625 70.375 2.5 61.5 2.5C52.625 2.5 45.5 9.75 45.5 18.5C45.5 23.25 47 28.125 49.375 32.5C52 37.375 55.625 41.375 60.125 44.75V50.875C60.125 52.75 58.25 54 56.375 54Z" fill="#7BB7D5"/>
<path fill-rule="evenodd" clip-rule="evenodd" d="M26.375 50.625C26.375 46.25 22.75 42.625 18.375 42.625C14 42.625 10.375 46.25 10.375 50.625C10.375 55 14 58.625 18.375 58.625C22.75 58.5 26.375 55 26.375 50.625Z" fill="#FDFCDF"/>
<path d="M25.125 50.625C25.125 48.75 24.375 47 23.125 45.875C21.875 44.625 20.25 43.875 18.375 43.875C16.5 43.875 14.875 44.625 13.625 45.875C12.375 47.125 11.625 48.75 11.625 50.625C11.625 52.5 12.375 54.125 13.625 55.375C14.875 56.625 16.5 57.375 18.375 57.375C20.25 57.375 22 56.625 23.125 55.375C24.375 54.125 25.125 52.375 25.125 50.625ZM24.875 44.125C26.5 45.75 27.625 48.125 27.625 50.625C27.625 53.125 26.625 55.5 24.875 57.125C23.25 58.75 20.875 59.875 18.375 59.875C15.875 59.875 13.5 58.875 11.875 57.125C10.25 55.5 9.125 53.125 9.125 50.625C9.125 48.125 10.125 45.75 11.875 44.125C13.5 42.5 15.875 41.375 18.375 41.375C20.875 41.375 23.25 42.375 24.875 44.125Z" fill="#7BB7D5"/>
<path fill-rule="evenodd" clip-rule="evenodd" d="M55.875 24.125C57.375 25.625 59.375 26.5 61.5 26.5C65.875 26.5 69.5 22.875 69.5 18.5C69.5 14.125 65.875 10.5 61.5 10.5C57.125 10.5 53.5 14.125 53.5 18.5C53.5 20.625 54.375 22.625 55.875 24.125Z" fill="#FDFCDF"/>
<path d="M61.5 25.25C65.25 25.25 68.25 22.25 68.25 18.5C68.25 14.75 65.25 11.75 61.5 11.75C57.75 11.75 54.75 14.75 54.75 18.5C54.75 22.25 57.75 25.25 61.5 25.25ZM52.25 18.5C52.25 13.5 56.375 9.25 61.5 9.25C66.625 9.25 70.75 13.375 70.75 18.5C70.75 23.625 66.625 27.75 61.5 27.75C56.375 27.625 52.25 23.5 52.25 18.5Z" fill="#7BB7D5"/>
</g>
<defs>
<clipPath id="clip0_170_3134">
<rect width="80" height="80" fill="white"/>
</clipPath>
</defs>
</svg>
