<svg width="100" height="100" viewBox="0 0 100 100" fill="none" xmlns="http://www.w3.org/2000/svg">
<g clip-path="url(#clip0_159_516)">
<path d="M7.32422 32.9102H30.5664C32.1204 32.9102 33.6108 33.5275 34.7096 34.6263C35.8085 35.7252 36.4258 37.2155 36.4258 38.7695V98.5352H1.46484V38.7695C1.46484 37.2155 2.08217 35.7252 3.18102 34.6263C4.27986 33.5275 5.77022 32.9102 7.32422 32.9102ZM69.4336 32.9102H92.6758C94.2298 32.9102 95.7201 33.5275 96.819 34.6263C97.9178 35.7252 98.5352 37.2155 98.5352 38.7695V98.5352H63.5742V38.7695C63.5742 37.2155 64.1915 35.7252 65.2904 34.6263C66.3892 33.5275 67.8796 32.9102 69.4336 32.9102Z" fill="#F7F5CA"/>
<path d="M92.6758 32.9102H83.8867C85.4407 32.9102 86.9311 33.5275 88.0299 34.6263C89.1288 35.7252 89.7461 37.2155 89.7461 38.7695V98.5352H98.5352V38.7695C98.5352 37.2155 97.9178 35.7252 96.819 34.6263C95.7201 33.5275 94.2298 32.9102 92.6758 32.9102ZM29.5898 19.043H70.4102C71.9642 19.043 73.4545 19.6603 74.5534 20.7591C75.6522 21.858 76.2695 23.3483 76.2695 24.9023V98.5352H23.7305V24.9023C23.7305 23.3483 24.3478 21.858 25.4466 20.7591C26.5455 19.6603 28.0358 19.043 29.5898 19.043Z" fill="#F7F5B8"/>
<path d="M61.6211 1.46484H38.3789C35.1429 1.46484 32.5195 4.08818 32.5195 7.32422V30.5664C32.5195 33.8024 35.1429 36.4258 38.3789 36.4258H61.6211C64.8571 36.4258 67.4805 33.8024 67.4805 30.5664V7.32422C67.4805 4.08818 64.8571 1.46484 61.6211 1.46484Z" fill="#E0786C"/>
<path d="M61.6211 1.46484H55.7617C57.3157 1.46484 58.8061 2.08217 59.9049 3.18102C61.0038 4.27986 61.6211 5.77022 61.6211 7.32422V30.5664C61.6211 32.1204 61.0038 33.6108 59.9049 34.7096C58.8061 35.8085 57.3157 36.4258 55.7617 36.4258H61.6211C63.1751 36.4258 64.6655 35.8085 65.7643 34.7096C66.8631 33.6108 67.4805 32.1204 67.4805 30.5664V7.32422C67.4805 5.77022 66.8631 4.27986 65.7643 3.18102C64.6655 2.08217 63.1751 1.46484 61.6211 1.46484Z" fill="#CE5244"/>
<path d="M49.9644 11.577C50.3478 11.577 50.7273 11.6525 51.0814 11.7992C51.4356 11.9459 51.7573 12.1609 52.0284 12.4319C52.2994 12.703 52.5144 13.0248 52.6611 13.3789C52.8077 13.733 52.8832 14.1126 52.8832 14.4959V17.1299H47.0455V14.4961C47.0455 14.1128 47.121 13.7332 47.2676 13.379C47.4143 13.0249 47.6293 12.7031 47.9004 12.432C48.1714 12.161 48.4932 11.946 48.8474 11.7993C49.2015 11.6526 49.5811 11.5771 49.9644 11.5772V11.577Z" fill="#E3E3E1"/>
<path d="M49.8221 16.4893H50.1068C52.7124 16.4893 55.2112 17.5243 57.0536 19.3667C58.896 21.2091 59.9311 23.7079 59.9311 26.3135H39.9975C39.9975 25.0233 40.2516 23.7458 40.7453 22.5538C41.2391 21.3619 41.9627 20.2788 42.8751 19.3666C43.7874 18.4543 44.8704 17.7307 46.0624 17.237C47.2544 16.7433 48.5319 16.4892 49.8221 16.4893Z" fill="#FDFCDF"/>
<path d="M46.6797 67.0898H53.3203C54.8743 67.0898 56.3647 67.7072 57.4635 68.806C58.5624 69.9049 59.1797 71.3952 59.1797 72.9492V98.5352H40.8203V72.9492C40.8203 71.3952 41.4376 69.9049 42.5365 68.806C43.6353 67.7072 45.1257 67.0898 46.6797 67.0898Z" fill="#888F93"/>
<path d="M53.3203 67.0898H47.4609C49.0149 67.0898 50.5053 67.7072 51.6041 68.806C52.703 69.9049 53.3203 71.3952 53.3203 72.9492V98.5352H59.1797V72.9492C59.1797 71.3952 58.5624 69.9049 57.4635 68.806C56.3647 67.7072 54.8743 67.0898 53.3203 67.0898Z" fill="#817776"/>
<path d="M44.8242 45.2148H33.3008C32.8693 45.2148 32.5195 45.5646 32.5195 45.9961V57.5195C32.5195 57.951 32.8693 58.3008 33.3008 58.3008H44.8242C45.2557 58.3008 45.6055 57.951 45.6055 57.5195V45.9961C45.6055 45.5646 45.2557 45.2148 44.8242 45.2148Z" fill="#7BB7D5"/>
<path d="M44.8242 45.2148H38.9648C39.172 45.2148 39.3708 45.2972 39.5173 45.4437C39.6638 45.5902 39.7461 45.7889 39.7461 45.9961V57.5195C39.7461 57.7267 39.6638 57.9254 39.5173 58.072C39.3708 58.2185 39.172 58.3008 38.9648 58.3008H44.8242C45.0314 58.3008 45.2301 58.2185 45.3766 58.072C45.5232 57.9254 45.6055 57.7267 45.6055 57.5195V45.9961C45.6055 45.7889 45.5232 45.5902 45.3766 45.4437C45.2301 45.2972 45.0314 45.2148 44.8242 45.2148Z" fill="#1C9FE1"/>
<path d="M66.6992 45.2148H55.1758C54.7443 45.2148 54.3945 45.5646 54.3945 45.9961V57.5195C54.3945 57.951 54.7443 58.3008 55.1758 58.3008H66.6992C67.1307 58.3008 67.4805 57.951 67.4805 57.5195V45.9961C67.4805 45.5646 67.1307 45.2148 66.6992 45.2148Z" fill="#7BB7D5"/>
<path d="M66.6992 45.2148H60.8398C61.047 45.2148 61.2458 45.2972 61.3923 45.4437C61.5388 45.5902 61.6211 45.7889 61.6211 45.9961V57.5195C61.6211 57.7267 61.5388 57.9254 61.3923 58.072C61.2458 58.2185 61.047 58.3008 60.8398 58.3008H66.6992C66.9064 58.3008 67.1051 58.2185 67.2516 58.072C67.3982 57.9254 67.4805 57.7267 67.4805 57.5195V45.9961C67.4805 45.7889 67.3982 45.5902 67.2516 45.4437C67.1051 45.2972 66.9064 45.2148 66.6992 45.2148Z" fill="#1C9FE1"/>
<path d="M76.2695 45.2148H88.5742C88.7814 45.2148 88.9801 45.2972 89.1266 45.4437C89.2732 45.5902 89.3555 45.7889 89.3555 45.9961V57.5195C89.3555 57.7267 89.2732 57.9254 89.1266 58.072C88.9801 58.2185 88.7814 58.3008 88.5742 58.3008H76.2695V45.2148Z" fill="#7BB7D5"/>
<path d="M88.5742 45.2148H82.7148C82.922 45.2148 83.1208 45.2972 83.2673 45.4437C83.4138 45.5902 83.4961 45.7889 83.4961 45.9961V57.5195C83.4961 57.7267 83.4138 57.9254 83.2673 58.072C83.1208 58.2185 82.922 58.3008 82.7148 58.3008H88.5742C88.7814 58.3008 88.9801 58.2185 89.1266 58.072C89.2732 57.9254 89.3555 57.7267 89.3555 57.5195V45.9961C89.3555 45.7889 89.2732 45.5902 89.1266 45.4437C88.9801 45.2972 88.7814 45.2148 88.5742 45.2148Z" fill="#1C9FE1"/>
<path d="M11.4258 45.2148H23.7305V58.3008H11.4258C11.2186 58.3008 11.0199 58.2185 10.8734 58.072C10.7268 57.9254 10.6445 57.7267 10.6445 57.5195V45.9961C10.6445 45.7889 10.7268 45.5902 10.8734 45.4437C11.0199 45.2972 11.2186 45.2148 11.4258 45.2148Z" fill="#7BB7D5"/>
<path d="M17.8711 45.2148H23.7305V58.3008H17.8711V45.2148Z" fill="#1C9FE1"/>
<path d="M76.2695 68.6523H88.5742C88.7814 68.6523 88.9801 68.7347 89.1266 68.8812C89.2732 69.0277 89.3555 69.2264 89.3555 69.4336V80.957C89.3555 81.1642 89.2732 81.3629 89.1266 81.5095C88.9801 81.656 88.7814 81.7383 88.5742 81.7383H76.2695V68.6523Z" fill="#7BB7D5"/>
<path d="M88.5742 68.6523H82.7148C82.922 68.6523 83.1208 68.7347 83.2673 68.8812C83.4138 69.0277 83.4961 69.2264 83.4961 69.4336V80.957C83.4961 81.1642 83.4138 81.3629 83.2673 81.5095C83.1208 81.656 82.922 81.7383 82.7148 81.7383H88.5742C88.7814 81.7383 88.9801 81.656 89.1266 81.5095C89.2732 81.3629 89.3555 81.1642 89.3555 80.957V69.4336C89.3555 69.2264 89.2732 69.0277 89.1266 68.8812C88.9801 68.7347 88.7814 68.6523 88.5742 68.6523Z" fill="#1C9FE1"/>
<path d="M11.4258 68.6523H23.7305V81.7383H11.4258C11.2186 81.7383 11.0199 81.656 10.8734 81.5095C10.7268 81.3629 10.6445 81.1642 10.6445 80.957V69.4336C10.6445 69.2264 10.7268 69.0277 10.8734 68.8812C11.0199 68.7347 11.2186 68.6523 11.4258 68.6523Z" fill="#7BB7D5"/>
<path d="M17.8711 68.6523H23.7305V81.7383H17.8711V68.6523Z" fill="#1C9FE1"/>
<path d="M45.6055 43.75H32.5195C32.131 43.75 31.7584 43.9043 31.4837 44.179C31.209 44.4538 31.0547 44.8263 31.0547 45.2148V58.3008C31.0547 58.6893 31.209 59.0619 31.4837 59.3366C31.7584 59.6113 32.131 59.7656 32.5195 59.7656H45.6055C45.994 59.7656 46.3666 59.6113 46.6413 59.3366C46.916 59.0619 47.0703 58.6893 47.0703 58.3008V45.2148C47.0703 44.8263 46.916 44.4538 46.6413 44.179C46.3666 43.9043 45.994 43.75 45.6055 43.75ZM44.1406 56.8359H33.9844V46.6797H44.1406V56.8359ZM92.6758 31.4453H77.7344V24.9023C77.7322 22.9605 76.9598 21.0988 75.5868 19.7257C74.2137 18.3526 72.352 17.5803 70.4102 17.5781H68.9453V7.32422C68.9431 5.38238 68.1708 3.5207 66.7977 2.14761C65.4246 0.774525 63.5629 0.00217121 61.6211 0L38.3789 0C36.4371 0.00217121 34.5754 0.774525 33.2023 2.14761C31.8292 3.5207 31.0569 5.38238 31.0547 7.32422V17.5781H29.5898C27.648 17.5803 25.7863 18.3526 24.4132 19.7257C23.0401 21.0988 22.2678 22.9605 22.2656 24.9023V31.4453H7.32422C5.38238 31.4475 3.5207 32.2198 2.14761 33.5929C0.774525 34.966 0.00217121 36.8277 0 38.7695L0 98.5352C0 98.9237 0.154331 99.2962 0.429043 99.571C0.703754 99.8457 1.07634 100 1.46484 100H98.5352C98.9237 100 99.2962 99.8457 99.571 99.571C99.8457 99.2962 100 98.9237 100 98.5352V38.7695C99.9978 36.8277 99.2255 34.966 97.8524 33.5929C96.4793 32.2198 94.6176 31.4475 92.6758 31.4453ZM22.2656 80.2734H12.1094V70.1172H22.2656V80.2734ZM22.2656 56.8359H12.1094V46.6797H22.2656V56.8359ZM22.2656 43.75H10.6445C10.256 43.75 9.88344 43.9043 9.60873 44.179C9.33402 44.4538 9.17969 44.8263 9.17969 45.2148V58.3008C9.17969 58.6893 9.33402 59.0619 9.60873 59.3366C9.88344 59.6113 10.256 59.7656 10.6445 59.7656H22.2656V67.1875H10.6445C10.256 67.1875 9.88344 67.3418 9.60873 67.6165C9.33402 67.8913 9.17969 68.2638 9.17969 68.6523V81.7383C9.17969 82.1268 9.33402 82.4994 9.60873 82.7741C9.88344 83.0488 10.256 83.2031 10.6445 83.2031H22.2656V97.0703H2.92969V38.7695C2.93098 37.6044 3.39439 36.4874 4.21824 35.6636C5.0421 34.8397 6.15911 34.3763 7.32422 34.375H22.2656V43.75ZM33.9844 7.32422C33.9857 6.15911 34.4491 5.0421 35.2729 4.21824C36.0968 3.39439 37.2138 2.93098 38.3789 2.92969H61.6211C62.7862 2.93103 63.9032 3.39446 64.727 4.2183C65.5509 5.04214 66.0143 6.15913 66.0156 7.32422V30.5664C66.0143 31.7315 65.5509 32.8485 64.727 33.6723C63.9032 34.4962 62.7862 34.9596 61.6211 34.9609H38.3789C37.2138 34.9596 36.0968 34.4962 35.2729 33.6724C34.4491 32.8485 33.9857 31.7315 33.9844 30.5664V7.32422ZM57.7148 97.0703H42.2852V72.9492C42.2864 71.7841 42.7499 70.6671 43.5737 69.8432C44.3976 69.0194 45.5146 68.556 46.6797 68.5547H53.3203C54.4854 68.556 55.6024 69.0195 56.4262 69.8433C57.2501 70.6671 57.7135 71.7841 57.7148 72.9492V97.0703ZM74.8047 97.0703H60.6445V72.9492C60.6424 71.0074 59.87 69.1457 58.4969 67.7726C57.1238 66.3995 55.2621 65.6272 53.3203 65.625H46.6797C44.7379 65.6272 42.8762 66.3995 41.5031 67.7726C40.13 69.1457 39.3576 71.0074 39.3555 72.9492V97.0703H25.1953V24.9023C25.1966 23.7372 25.66 22.6202 26.4839 21.7964C27.3077 20.9725 28.4247 20.5091 29.5898 20.5078H31.0547V30.5664C31.0569 32.5082 31.8292 34.3699 33.2023 35.743C34.5754 37.1161 36.4371 37.8885 38.3789 37.8906H61.6211C63.5629 37.8885 65.4246 37.1161 66.7977 35.743C68.1708 34.3699 68.9431 32.5082 68.9453 30.5664V20.5078H70.4102C71.5752 20.5092 72.6922 20.9726 73.5161 21.7964C74.3399 22.6203 74.8033 23.7373 74.8047 24.9023V97.0703ZM77.7344 46.6797H87.8906V56.8359H77.7344V46.6797ZM77.7344 70.1172H87.8906V80.2734H77.7344V70.1172ZM97.0703 97.0703H77.7344V83.2031H89.3555C89.744 83.2031 90.1166 83.0488 90.3913 82.7741C90.666 82.4994 90.8203 82.1268 90.8203 81.7383V68.6523C90.8203 68.2638 90.666 67.8913 90.3913 67.6165C90.1166 67.3418 89.744 67.1875 89.3555 67.1875H77.7344V59.7656H89.3555C89.744 59.7656 90.1166 59.6113 90.3913 59.3366C90.666 59.0619 90.8203 58.6893 90.8203 58.3008V45.2148C90.8203 44.8263 90.666 44.4538 90.3913 44.179C90.1166 43.9043 89.744 43.75 89.3555 43.75H77.7344V34.375H92.6758C93.8409 34.3763 94.9579 34.8398 95.7817 35.6636C96.6055 36.4875 97.069 37.6044 97.0703 38.7695V97.0703ZM37.933 27.7785H62.0668C62.4553 27.7785 62.8279 27.6242 63.1026 27.3495C63.3773 27.0748 63.5316 26.7022 63.5316 26.3137C63.5316 25.9252 63.3773 25.5526 63.1026 25.2779C62.8279 25.0032 62.4553 24.8488 62.0668 24.8488H61.2979C61.0353 22.8699 60.2542 20.9956 59.0336 19.4159C57.813 17.8363 56.1964 16.6076 54.3477 15.8543V14.4961C54.3477 13.3334 53.8858 12.2184 53.0637 11.3963C52.2416 10.5742 51.1265 10.1123 49.9639 10.1123C48.8012 10.1123 47.6862 10.5742 46.8641 11.3963C46.0419 12.2184 45.5801 13.3334 45.5801 14.4961V15.8547C43.7316 16.608 42.1152 17.8368 40.8948 19.4163C39.6744 20.9959 38.8933 22.8701 38.6309 24.8488H37.933C37.5445 24.8488 37.1719 25.0032 36.8972 25.2779C36.6225 25.5526 36.4682 25.9252 36.4682 26.3137C36.4682 26.7022 36.6225 27.0748 36.8972 27.3495C37.1719 27.6242 37.5445 27.7785 37.933 27.7785ZM48.5098 14.4961C48.5102 14.1103 48.6636 13.7404 48.9364 13.4677C49.2092 13.1949 49.5791 13.0414 49.9648 13.041C50.3504 13.0417 50.7198 13.1953 50.9922 13.4681C51.2647 13.7409 51.4178 14.1106 51.418 14.4961V15.1031C50.9828 15.0516 50.545 15.0253 50.1068 15.0244H49.8221C49.3835 15.0253 48.9453 15.0517 48.5098 15.1033V14.4961ZM49.8221 17.9541H50.1068C52.0692 17.9567 53.9684 18.6484 55.4727 19.9085C56.9771 21.1686 57.9911 22.9171 58.3377 24.8486H41.591C41.9377 22.9171 42.9517 21.1686 44.4561 19.9085C45.9605 18.6484 47.8597 17.9567 49.8221 17.9541ZM67.4805 43.75H54.3945C54.006 43.75 53.6334 43.9043 53.3587 44.179C53.084 44.4538 52.9297 44.8263 52.9297 45.2148V58.3008C52.9297 58.6893 53.084 59.0619 53.3587 59.3366C53.6334 59.6113 54.006 59.7656 54.3945 59.7656H67.4805C67.869 59.7656 68.2416 59.6113 68.5163 59.3366C68.791 59.0619 68.9453 58.6893 68.9453 58.3008V45.2148C68.9453 44.8263 68.791 44.4538 68.5163 44.179C68.2416 43.9043 67.869 43.75 67.4805 43.75ZM66.0156 56.8359H55.8594V46.6797H66.0156V56.8359Z" fill="#413C3B"/>
</g>
<defs>
<clipPath id="clip0_159_516">
<rect width="100" height="100" fill="white"/>
</clipPath>
</defs>
</svg>
