<svg width="55" height="80" viewBox="0 0 55 80" fill="none" xmlns="http://www.w3.org/2000/svg">
<g clip-path="url(#clip0_159_662)">
<path d="M64.9219 1.17188H15.0781C13.7837 1.17188 12.7344 2.22121 12.7344 3.51562V18.8281C12.7344 20.1225 13.7837 21.1719 15.0781 21.1719H64.9219C66.2163 21.1719 67.2656 20.1225 67.2656 18.8281V3.51562C67.2656 2.22121 66.2163 1.17188 64.9219 1.17188Z" fill="#E0786C"/>
<path d="M23.8408 6.36866L25.1488 9.01897C25.1824 9.08714 25.2322 9.1461 25.2937 9.19077C25.3552 9.23544 25.4267 9.26448 25.5019 9.27537L28.4266 9.70037C28.5132 9.71294 28.5945 9.74948 28.6613 9.80586C28.7282 9.86223 28.778 9.93619 28.805 10.0194C28.8321 10.1026 28.8353 10.1916 28.8143 10.2766C28.7934 10.3615 28.7491 10.4388 28.6864 10.4999L26.5699 12.5629C26.5155 12.6159 26.4748 12.6815 26.4513 12.7537C26.4278 12.826 26.4223 12.903 26.4352 12.9779L26.9347 15.8908C26.9495 15.977 26.9399 16.0657 26.9069 16.1467C26.8739 16.2277 26.819 16.2979 26.7482 16.3493C26.6774 16.4007 26.5937 16.4312 26.5065 16.4375C26.4192 16.4438 26.332 16.4256 26.2546 16.3849L23.6386 15.0096C23.5714 14.9742 23.4965 14.9558 23.4205 14.9558C23.3445 14.9558 23.2696 14.9742 23.2024 15.0096L20.5863 16.3849C20.5089 16.4256 20.4216 16.4438 20.3344 16.4375C20.2472 16.4312 20.1634 16.4007 20.0927 16.3493C20.0219 16.2979 19.9669 16.2277 19.934 16.1467C19.901 16.0657 19.8914 15.977 19.9061 15.8908L20.4058 12.9779C20.4187 12.903 20.4131 12.826 20.3896 12.7537C20.3661 12.6814 20.3254 12.6159 20.271 12.5629L18.1547 10.5001C18.0921 10.439 18.0478 10.3616 18.0268 10.2767C18.0059 10.1918 18.0091 10.1027 18.0361 10.0195C18.0632 9.93635 18.1129 9.86239 18.1798 9.80601C18.2467 9.74964 18.328 9.7131 18.4146 9.70053L21.3393 9.27553C21.4145 9.26463 21.486 9.2356 21.5475 9.19093C21.609 9.14626 21.6587 9.0873 21.6924 9.01912L23.0002 6.36881C23.0389 6.29035 23.0988 6.22429 23.1731 6.1781C23.2474 6.1319 23.3331 6.10742 23.4206 6.10742C23.5081 6.10742 23.5938 6.1319 23.6681 6.1781C23.7424 6.22429 23.8023 6.29035 23.841 6.36881L23.8408 6.36866ZM40.4205 6.36866L41.7283 9.01897C41.762 9.08714 41.8117 9.1461 41.8732 9.19077C41.9347 9.23544 42.0062 9.26448 42.0814 9.27537L45.0061 9.70037C45.0927 9.71294 45.174 9.74948 45.2409 9.80586C45.3078 9.86223 45.3575 9.93619 45.3846 10.0194C45.4116 10.1026 45.4148 10.1916 45.3939 10.2766C45.3729 10.3615 45.3286 10.4388 45.266 10.4999L43.1496 12.5629C43.0951 12.6159 43.0544 12.6814 43.0309 12.7537C43.0074 12.826 43.0019 12.903 43.0147 12.9779L43.5143 15.8908C43.529 15.977 43.5194 16.0656 43.4864 16.1466C43.4534 16.2276 43.3985 16.2977 43.3278 16.3491C43.257 16.4005 43.1733 16.4311 43.0861 16.4374C42.9989 16.4438 42.9117 16.4256 42.8343 16.3849L40.2182 15.0096C40.1509 14.9742 40.076 14.9558 40 14.9558C39.924 14.9558 39.8492 14.9742 39.7819 15.0096L37.1658 16.3849C37.0884 16.4256 37.0012 16.4438 36.914 16.4374C36.8268 16.4311 36.7431 16.4005 36.6723 16.3491C36.6016 16.2977 36.5466 16.2276 36.5137 16.1466C36.4807 16.0656 36.4711 15.977 36.4858 15.8908L36.9853 12.9779C36.9982 12.903 36.9927 12.826 36.9692 12.7537C36.9457 12.6814 36.9049 12.6159 36.8505 12.5629L34.7341 10.5001C34.6715 10.439 34.6272 10.3616 34.6062 10.2767C34.5853 10.1918 34.5885 10.1027 34.6155 10.0195C34.6425 9.93635 34.6923 9.86239 34.7592 9.80601C34.8261 9.74964 34.9074 9.7131 34.9939 9.70053L37.9188 9.27553C37.994 9.26458 38.0654 9.23553 38.1268 9.19086C38.1883 9.14619 38.238 9.08726 38.2716 9.01912L39.5797 6.36881C39.6184 6.2904 39.6783 6.22437 39.7526 6.17821C39.8269 6.13204 39.9126 6.10758 40 6.10758C40.0875 6.10758 40.1732 6.13204 40.2475 6.17821C40.3218 6.22437 40.3816 6.2904 40.4203 6.36881L40.4205 6.36866ZM56.9999 6.44678L58.308 9.09709C58.3416 9.16524 58.3913 9.22419 58.4528 9.26886C58.5143 9.31353 58.5858 9.34258 58.661 9.3535L61.5857 9.7785C61.6722 9.79107 61.7535 9.82761 61.8204 9.88398C61.8873 9.94036 61.9371 10.0143 61.9641 10.0975C61.9911 10.1807 61.9943 10.2698 61.9734 10.3547C61.9524 10.4396 61.9081 10.517 61.8455 10.578L59.7291 12.641C59.6747 12.6941 59.6339 12.7596 59.6104 12.8319C59.5869 12.9042 59.5814 12.9811 59.5943 13.056L60.0939 15.969C60.1087 16.0552 60.0991 16.1438 60.0661 16.2248C60.0331 16.3058 59.9782 16.376 59.9074 16.4274C59.8367 16.4788 59.7529 16.5094 59.6657 16.5157C59.5785 16.522 59.4912 16.5037 59.4138 16.463L56.7977 15.0877C56.7304 15.0524 56.6556 15.0339 56.5796 15.0339C56.5036 15.0339 56.4287 15.0524 56.3614 15.0877L53.7455 16.463C53.6681 16.5037 53.5808 16.522 53.4936 16.5157C53.4064 16.5094 53.3226 16.4788 53.2519 16.4274C53.1811 16.376 53.1261 16.3058 53.0932 16.2248C53.0602 16.1438 53.0506 16.0552 53.0653 15.969L53.5649 13.056C53.5778 12.9811 53.5722 12.9042 53.5488 12.8319C53.5253 12.7596 53.4846 12.6941 53.4302 12.641L51.3136 10.5782C51.251 10.5171 51.2067 10.4398 51.1857 10.3548C51.1648 10.2699 51.168 10.1808 51.195 10.0977C51.2221 10.0145 51.2718 9.94051 51.3387 9.88414C51.4056 9.82776 51.4869 9.79123 51.5735 9.77866L54.4983 9.35366C54.5735 9.34273 54.645 9.31369 54.7064 9.26902C54.7679 9.22435 54.8176 9.1654 54.8513 9.09725L56.1593 6.44694C56.198 6.36852 56.2579 6.3025 56.3321 6.25633C56.4064 6.21017 56.4921 6.18571 56.5796 6.18571C56.667 6.18571 56.7527 6.21017 56.827 6.25633C56.9013 6.3025 56.9612 6.36836 56.9999 6.44678Z" fill="#FF7666"/>
<path d="M52.0896 10.2974C52.1648 10.2865 52.2362 10.2575 52.2978 10.2129C52.3593 10.1682 52.409 10.1093 52.4427 10.0412L52.6492 9.62225L51.5735 9.7785C51.5025 9.78888 51.435 9.81537 51.3759 9.85595C51.3168 9.89652 51.2678 9.9501 51.2326 10.0126C51.1975 10.075 51.1771 10.1447 51.1731 10.2163C51.1691 10.2878 51.1815 10.3594 51.2094 10.4254L52.0896 10.2974ZM61.8455 10.578C61.9081 10.517 61.9524 10.4396 61.9734 10.3547C61.9943 10.2698 61.9911 10.1807 61.9641 10.0975C61.937 10.0143 61.8873 9.94035 61.8204 9.88398C61.7535 9.82761 61.6722 9.79107 61.5857 9.7785L58.661 9.3535C58.5857 9.3426 58.5143 9.31356 58.4527 9.26889C58.3912 9.22422 58.3415 9.16526 58.3078 9.09709L57 6.44678C56.9613 6.36832 56.9014 6.30226 56.8272 6.25606C56.7529 6.20987 56.6671 6.18539 56.5796 6.18539C56.4922 6.18539 56.4064 6.20987 56.3321 6.25606C56.2578 6.30226 56.1979 6.36832 56.1592 6.44678L55.1424 8.50725L55.8993 10.041C55.9329 10.1091 55.9826 10.1681 56.0441 10.2128C56.1056 10.2574 56.177 10.2865 56.2522 10.2974L59.1771 10.7224C59.2636 10.735 59.3449 10.7715 59.4118 10.8279C59.4787 10.8843 59.5285 10.9582 59.5555 11.0414C59.5825 11.1246 59.5857 11.2137 59.5648 11.2986C59.5438 11.3835 59.4995 11.4609 59.4369 11.5219L57.3203 13.5849C57.2659 13.638 57.2252 13.7035 57.2018 13.7758C57.1783 13.8481 57.1728 13.925 57.1857 13.9999L57.4291 15.4197L59.4138 16.463C59.4912 16.5037 59.5784 16.522 59.6657 16.5157C59.7529 16.5094 59.8366 16.4788 59.9074 16.4274C59.9782 16.376 60.0331 16.3058 60.0661 16.2248C60.0991 16.1438 60.1087 16.0552 60.0939 15.969L59.5942 13.056C59.5814 12.9811 59.5869 12.9041 59.6104 12.8319C59.6339 12.7596 59.6746 12.6941 59.7291 12.641L61.8455 10.578ZM45.2658 10.4999C45.3284 10.4389 45.3727 10.3615 45.3937 10.2766C45.4147 10.1917 45.4115 10.1026 45.3844 10.0194C45.3574 9.93625 45.3077 9.86229 45.2408 9.80591C45.174 9.74952 45.0927 9.71297 45.0061 9.70037L42.0813 9.27537C42.0061 9.26443 41.9347 9.23537 41.8732 9.1907C41.8118 9.14603 41.7621 9.0871 41.7285 9.01897L40.4203 6.36865C40.3816 6.29024 40.3217 6.22421 40.2475 6.17805C40.1732 6.13189 40.0875 6.10742 40 6.10742C39.9126 6.10742 39.8269 6.13189 39.7526 6.17805C39.6783 6.22421 39.6184 6.29024 39.5797 6.36865L38.5625 8.42912L39.3196 9.96287C39.3532 10.031 39.4029 10.09 39.4644 10.1346C39.5259 10.1793 39.5973 10.2084 39.6725 10.2193L42.5972 10.6443C42.6838 10.6568 42.7651 10.6934 42.832 10.7498C42.8988 10.8061 42.9486 10.8801 42.9756 10.9633C43.0027 11.0465 43.0059 11.1356 42.9849 11.2205C42.964 11.3054 42.9197 11.3828 42.8571 11.4438L40.7407 13.5068C40.6862 13.5598 40.6455 13.6253 40.622 13.6976C40.5985 13.7699 40.593 13.8469 40.6058 13.9218L40.8494 15.3416L42.8341 16.3849C42.9115 16.4256 42.9988 16.4438 43.086 16.4375C43.1732 16.4312 43.257 16.4007 43.3277 16.3493C43.3985 16.2979 43.4535 16.2277 43.4864 16.1467C43.5194 16.0657 43.529 15.977 43.5142 15.8908L43.0146 12.9779C43.0017 12.9029 43.0073 12.826 43.0307 12.7537C43.0542 12.6814 43.095 12.6159 43.1494 12.5629L45.2658 10.4999ZM28.6864 10.4999C28.7491 10.4388 28.7934 10.3615 28.8143 10.2766C28.8353 10.1916 28.8321 10.1026 28.805 10.0194C28.778 9.93619 28.7282 9.86223 28.6613 9.80585C28.5945 9.74948 28.5131 9.71294 28.4266 9.70037L25.5017 9.27537C25.4265 9.26445 25.3551 9.2354 25.2936 9.19073C25.2321 9.14607 25.1824 9.08712 25.1488 9.01897L23.8408 6.36865C23.8021 6.29024 23.7422 6.22421 23.6679 6.17805C23.5937 6.13189 23.508 6.10742 23.4205 6.10742C23.333 6.10742 23.2473 6.13189 23.1731 6.17805C23.0988 6.22421 23.0389 6.29024 23.0002 6.36865L21.9832 8.42912L22.7402 9.96287C22.7738 10.031 22.8235 10.0899 22.885 10.1346C22.9464 10.1793 23.0178 10.2083 23.093 10.2193L26.018 10.6443C26.1045 10.6569 26.1858 10.6934 26.2527 10.7498C26.3196 10.8062 26.3693 10.8802 26.3963 10.9633C26.4233 11.0465 26.4265 11.1356 26.4056 11.2205C26.3846 11.3054 26.3403 11.3828 26.2777 11.4438L24.1613 13.5068C24.1068 13.5598 24.0661 13.6253 24.0426 13.6976C24.0191 13.7699 24.0136 13.8469 24.0264 13.9218L24.27 15.3416L26.2546 16.3849C26.332 16.4256 26.4192 16.4438 26.5065 16.4375C26.5937 16.4312 26.6774 16.4007 26.7482 16.3493C26.8189 16.2979 26.8739 16.2277 26.9069 16.1467C26.9398 16.0657 26.9495 15.977 26.9347 15.8908L26.4352 12.9779C26.4223 12.9029 26.4279 12.826 26.4514 12.7537C26.4749 12.6814 26.5156 12.6159 26.57 12.5629L28.6864 10.4999ZM54.3891 16.0316C54.3218 15.9963 54.247 15.9778 54.171 15.9778C54.095 15.9778 54.0201 15.9963 53.9528 16.0316L53.2318 16.4108C53.3025 16.4696 53.3892 16.5059 53.4807 16.5152C53.5722 16.5245 53.6644 16.5063 53.7455 16.463L54.4775 16.0782L54.3891 16.0316Z" fill="#FF4B36"/>
<path d="M3.51562 30.5469H76.4844V78.8281H3.51562V30.5469Z" fill="#FDFCDF"/>
<path d="M69.4532 30.5469H76.4844V78.8281H69.4532V30.5469ZM17.843 21.1719H22.9993V30.5469H17.843V21.1719ZM57.0008 21.1719H62.1571V30.5469H57.0008V21.1719Z" fill="#EEEEEE"/>
<path d="M33.9062 58.2031H46.0938C46.7154 58.2031 47.3115 58.4501 47.751 58.8896C48.1906 59.3291 48.4375 59.9253 48.4375 60.5469V78.8281H31.5625V60.5469C31.5625 59.9253 31.8094 59.3291 32.249 58.8896C32.6885 58.4501 33.2846 58.2031 33.9062 58.2031Z" fill="#FF9285"/>
<path d="M46.0938 58.2031H39.0625C39.6841 58.2031 40.2802 58.4501 40.7198 58.8896C41.1593 59.3291 41.4062 59.9253 41.4062 60.5469V78.8281H48.4375V60.5469C48.4375 59.9253 48.1906 59.3291 47.751 58.8896C47.3115 58.4501 46.7154 58.2031 46.0938 58.2031Z" fill="#FF7F70"/>
<path d="M77.7344 25.8594H2.26562C1.66156 25.8594 1.17188 26.3491 1.17188 26.9531V29.4531C1.17188 30.0572 1.66156 30.5469 2.26562 30.5469H77.7344C78.3384 30.5469 78.8281 30.0572 78.8281 29.4531V26.9531C78.8281 26.3491 78.3384 25.8594 77.7344 25.8594Z" fill="#677C87"/>
<path d="M21.7969 37.5781H11.9531C11.1765 37.5781 10.5469 38.2077 10.5469 38.9844V49.7656C10.5469 50.5423 11.1765 51.1719 11.9531 51.1719H21.7969C22.5735 51.1719 23.2031 50.5423 23.2031 49.7656V38.9844C23.2031 38.2077 22.5735 37.5781 21.7969 37.5781Z" fill="#7BB7D5"/>
<path d="M21.7969 58.2031H11.9531C11.1765 58.2031 10.5469 58.8327 10.5469 59.6094V70.3906C10.5469 71.1673 11.1765 71.7969 11.9531 71.7969H21.7969C22.5735 71.7969 23.2031 71.1673 23.2031 70.3906V59.6094C23.2031 58.8327 22.5735 58.2031 21.7969 58.2031Z" fill="#7BB7D5"/>
<path d="M44.9219 37.5781H35.0781C34.3015 37.5781 33.6719 38.2077 33.6719 38.9844V49.7656C33.6719 50.5423 34.3015 51.1719 35.0781 51.1719H44.9219C45.6985 51.1719 46.3281 50.5423 46.3281 49.7656V38.9844C46.3281 38.2077 45.6985 37.5781 44.9219 37.5781Z" fill="#7BB7D5"/>
<path d="M45.1745 8.54062L42.6156 8.16875L41.4712 5.84984C41.3357 5.57535 41.1261 5.34424 40.8661 5.18265C40.6061 5.02105 40.3061 4.93541 40 4.93541C39.6939 4.93541 39.3939 5.02105 39.1339 5.18265C38.8739 5.34424 38.6643 5.57535 38.5288 5.84984L37.3844 8.16859L34.8255 8.54047C34.5225 8.58447 34.2379 8.71236 34.0038 8.90968C33.7697 9.10699 33.5956 9.36587 33.5009 9.65703C33.4063 9.94818 33.3951 10.26 33.4684 10.5572C33.5418 10.8545 33.6969 11.1252 33.9161 11.3389L35.7678 13.1439L35.3308 15.6923C35.2781 15.9943 35.3112 16.3049 35.4263 16.5889C35.5414 16.873 35.7338 17.1191 35.9817 17.2992C36.2296 17.4794 36.5231 17.5864 36.8288 17.6081C37.1345 17.6298 37.4402 17.5654 37.7111 17.422L40 16.2189L42.2887 17.422C42.5597 17.5645 42.8651 17.6283 43.1704 17.6062C43.4757 17.5841 43.7688 17.4771 44.0165 17.2972C44.2641 17.1173 44.4565 16.8716 44.5719 16.5881C44.6872 16.3045 44.7209 15.9944 44.6692 15.6927L44.2322 13.1439L46.0841 11.3389C46.3033 11.1252 46.4584 10.8545 46.5317 10.5572C46.6051 10.26 46.5938 9.94818 46.4992 9.65703C46.4046 9.36587 46.2304 9.10699 45.9963 8.90968C45.7623 8.71236 45.4777 8.58447 45.1747 8.54047L45.1745 8.54062ZM42.3313 11.7237C42.1408 11.9094 41.9984 12.1386 41.9162 12.3915C41.8341 12.6445 41.8147 12.9137 41.8597 13.1758L42.1184 14.6845L40.7636 13.9722C40.5281 13.8484 40.266 13.7837 40 13.7837C39.734 13.7837 39.4719 13.8484 39.2364 13.9722L37.8817 14.6847L38.1403 13.1759C38.1854 12.9137 38.166 12.6445 38.0838 12.3915C38.0016 12.1385 37.8591 11.9093 37.6686 11.7236L36.5722 10.655L38.0873 10.435C38.3506 10.3968 38.6006 10.2951 38.8157 10.1388C39.0309 9.9824 39.2048 9.77605 39.3225 9.5375L40 8.16469L40.6773 9.53719C40.795 9.77583 40.969 9.98227 41.1842 10.1387C41.3994 10.2951 41.6495 10.3968 41.9128 10.435L43.4277 10.655L42.3313 11.7237ZM28.595 8.54062L26.0361 8.16875L24.8917 5.84984C24.7562 5.57535 24.5466 5.34424 24.2866 5.18265C24.0266 5.02105 23.7266 4.93541 23.4205 4.93541C23.1143 4.93541 22.8143 5.02105 22.5543 5.18265C22.2943 5.34424 22.0847 5.57535 21.9492 5.84984L20.8047 8.16859L18.2458 8.54047C17.9428 8.58449 17.6582 8.7124 17.4242 8.90973C17.1901 9.10706 17.016 9.36593 16.9214 9.65709C16.8268 9.94824 16.8155 10.26 16.8889 10.5573C16.9623 10.8545 17.1173 11.1252 17.3366 11.3389L19.1881 13.1439L18.7513 15.6923C18.6986 15.9943 18.7317 16.3049 18.8468 16.5889C18.9618 16.873 19.1542 17.1191 19.4022 17.2992C19.6501 17.4794 19.9436 17.5864 20.2493 17.6081C20.555 17.6298 20.8607 17.5654 21.1316 17.422L23.4205 16.2189L25.7092 17.422C25.9802 17.5644 26.2856 17.6282 26.5908 17.6061C26.8961 17.584 27.1892 17.477 27.4368 17.2971C27.6844 17.1171 27.8768 16.8715 27.9922 16.588C28.1075 16.3045 28.1412 15.9944 28.0895 15.6927L27.6525 13.1441L29.5045 11.3389C29.7238 11.1252 29.8788 10.8544 29.9522 10.5572C30.0255 10.26 30.0143 9.94813 29.9196 9.65697C29.825 9.36581 29.6508 9.10693 29.4167 8.90962C29.1826 8.71231 28.898 8.5846 28.595 8.54062ZM25.7516 11.7237C25.5611 11.9094 25.4187 12.1386 25.3365 12.3916C25.2544 12.6445 25.235 12.9137 25.28 13.1758L25.5386 14.6845L24.1839 13.9722C23.9485 13.8483 23.6864 13.7836 23.4204 13.7836C23.1544 13.7836 22.8923 13.8483 22.6569 13.9722L21.3019 14.6847L21.5605 13.1759C21.6055 12.9138 21.5862 12.6446 21.504 12.3915C21.4219 12.1385 21.2794 11.9093 21.0889 11.7236L19.9927 10.655L21.5075 10.435C21.7708 10.3968 22.0208 10.2951 22.236 10.1388C22.4512 9.98243 22.6251 9.77607 22.7428 9.5375L23.4203 8.16469L24.098 9.53813C24.2158 9.77652 24.3897 9.98272 24.6049 10.139C24.8201 10.2952 25.07 10.3968 25.3331 10.435L26.848 10.6552L25.7516 11.7237ZM58.2031 72.9688H68.0469C68.7304 72.9679 69.3857 72.696 69.869 72.2127C70.3523 71.7294 70.6242 71.0741 70.625 70.3906V59.6094C70.6242 58.9259 70.3523 58.2706 69.869 57.7873C69.3857 57.304 68.7304 57.0321 68.0469 57.0312H58.2031C57.5196 57.0321 56.8643 57.304 56.381 57.7873C55.8977 58.2706 55.6258 58.9259 55.625 59.6094V70.3906C55.6258 71.0741 55.8977 71.7294 56.381 72.2127C56.8643 72.696 57.5196 72.9679 58.2031 72.9688ZM64.2969 59.375H68.0469C68.109 59.3751 68.1686 59.3998 68.2125 59.4437C68.2564 59.4877 68.2812 59.5472 68.2812 59.6094V63.8281H64.2969V59.375ZM64.2969 66.1719H68.2812V70.3906C68.2812 70.4528 68.2564 70.5123 68.2125 70.5563C68.1686 70.6002 68.109 70.6249 68.0469 70.625H64.2969V66.1719ZM57.9688 59.6094C57.9688 59.5472 57.9935 59.4877 58.0375 59.4437C58.0814 59.3998 58.141 59.3751 58.2031 59.375H61.9531V63.8281H57.9688V59.6094ZM57.9688 66.1719H61.9531V70.625H58.2031C58.141 70.6249 58.0814 70.6002 58.0375 70.5563C57.9935 70.5123 57.9688 70.4528 57.9688 70.3906V66.1719ZM77.7344 31.7188C78.335 31.718 78.9109 31.4791 79.3356 31.0544C79.7604 30.6297 79.9993 30.0538 80 29.4531V26.9531C79.9993 26.3525 79.7604 25.7766 79.3356 25.3519C78.9109 24.9271 78.335 24.6882 77.7344 24.6875H63.3289V22.3438H64.9219C65.8539 22.3427 66.7475 21.9719 67.4066 21.3129C68.0657 20.6538 68.4364 19.7602 68.4375 18.8281V3.51562C68.4364 2.58355 68.0657 1.68996 67.4066 1.03089C66.7475 0.371816 65.8539 0.0010752 64.9219 0L15.0781 0C14.1461 0.0010752 13.2525 0.371816 12.5934 1.03089C11.9343 1.68996 11.5636 2.58355 11.5625 3.51562V18.8281C11.5636 19.7602 11.9343 20.6538 12.5934 21.3129C13.2525 21.9719 14.1461 22.3427 15.0781 22.3438H16.6711V24.6875H2.26562C1.66496 24.6882 1.0891 24.9271 0.664363 25.3519C0.239628 25.7766 0.000702993 26.3525 0 26.9531L0 29.4531C0.000702993 30.0538 0.239628 30.6297 0.664363 31.0544C1.0891 31.4791 1.66496 31.718 2.26562 31.7188H2.34375V77.6562H1.17188C0.861074 77.6562 0.563003 77.7797 0.343234 77.9995C0.123465 78.2193 0 78.5173 0 78.8281C0 79.1389 0.123465 79.437 0.343234 79.6568C0.563003 79.8765 0.861074 80 1.17188 80H78.8281C79.1389 80 79.437 79.8765 79.6568 79.6568C79.8765 79.437 80 79.1389 80 78.8281C80 78.5173 79.8765 78.2193 79.6568 77.9995C79.437 77.7797 79.1389 77.6562 78.8281 77.6562H77.6562V31.7188H77.7344ZM15.0781 20C14.7674 19.9997 14.4695 19.8761 14.2498 19.6564C14.0302 19.4367 13.9066 19.1388 13.9062 18.8281V3.51562C13.9066 3.20493 14.0302 2.90705 14.2498 2.68735C14.4695 2.46765 14.7674 2.34408 15.0781 2.34375H64.9219C65.2326 2.34408 65.5305 2.46765 65.7502 2.68735C65.9698 2.90705 66.0934 3.20493 66.0938 3.51562V18.8281C66.0934 19.1388 65.9698 19.4367 65.7502 19.6564C65.5305 19.8761 65.2326 19.9997 64.9219 20H15.0781ZM60.9852 22.3438V24.6875H58.1727V22.3438H60.9852ZM55.8289 22.3438V24.6875H24.1711V22.3438H55.8289ZM21.8273 22.3438V24.6875H19.0148V22.3438H21.8273ZM47.2656 77.6562H32.7344V60.5469C32.7347 60.2362 32.8583 59.9383 33.078 59.7186C33.2977 59.4989 33.5956 59.3753 33.9062 59.375H46.0938C46.4044 59.3753 46.7023 59.4989 46.922 59.7186C47.1417 59.9383 47.2653 60.2362 47.2656 60.5469V77.6562ZM75.3125 77.6562H49.6094V60.5469C49.6083 59.6148 49.2376 58.7212 48.5785 58.0621C47.9194 57.4031 47.0258 57.0323 46.0938 57.0312H33.9062C32.9742 57.0323 32.0806 57.4031 31.4215 58.0621C30.7624 58.7212 30.3917 59.6148 30.3906 60.5469V77.6562H4.6875V31.7188H75.3125V77.6562ZM2.34375 29.375V27.0312H77.6562V29.375H2.34375ZM35.0781 52.3438H44.9219C45.6054 52.3429 46.2607 52.071 46.744 51.5877C47.2273 51.1044 47.4992 50.4491 47.5 49.7656V38.9844C47.4992 38.3009 47.2273 37.6456 46.744 37.1622C46.2607 36.6789 45.6054 36.407 44.9219 36.4062H35.0781C34.3946 36.407 33.7393 36.6789 33.256 37.1622C32.7727 37.6456 32.5008 38.3009 32.5 38.9844V49.7656C32.5008 50.4491 32.7727 51.1044 33.256 51.5877C33.7393 52.071 34.3946 52.3429 35.0781 52.3438ZM41.1719 38.75H44.9219C44.984 38.7501 45.0436 38.7748 45.0875 38.8187C45.1315 38.8627 45.1562 38.9222 45.1562 38.9844V43.2031H41.1719V38.75ZM41.1719 45.5469H45.1562V49.7656C45.1562 49.8278 45.1315 49.8873 45.0875 49.9313C45.0436 49.9752 44.984 49.9999 44.9219 50H41.1719V45.5469ZM34.8438 38.9844C34.8438 38.9222 34.8686 38.8627 34.9125 38.8187C34.9564 38.7748 35.016 38.7501 35.0781 38.75H38.8281V43.2031H34.8438V38.9844ZM34.8438 45.5469H38.8281V50H35.0781C35.016 49.9999 34.9564 49.9752 34.9125 49.9313C34.8686 49.8873 34.8438 49.8278 34.8438 49.7656V45.5469ZM11.9531 52.3438H21.7969C22.4804 52.3429 23.1357 52.071 23.619 51.5877C24.1023 51.1044 24.3742 50.4491 24.375 49.7656V38.9844C24.3742 38.3009 24.1023 37.6456 23.619 37.1622C23.1357 36.6789 22.4804 36.407 21.7969 36.4062H11.9531C11.2696 36.407 10.6143 36.6789 10.131 37.1622C9.64766 37.6456 9.37579 38.3009 9.375 38.9844V49.7656C9.37583 50.4491 9.64772 51.1044 10.131 51.5877C10.6143 52.071 11.2696 52.3429 11.9531 52.3438ZM18.0469 38.75H21.7969C21.859 38.7501 21.9186 38.7748 21.9625 38.8187C22.0064 38.8627 22.0312 38.9222 22.0312 38.9844V43.2031H18.0469V38.75ZM18.0469 45.5469H22.0312V49.7656C22.0312 49.8278 22.0064 49.8873 21.9625 49.9313C21.9186 49.9752 21.859 49.9999 21.7969 50H18.0469V45.5469ZM11.7188 38.9844C11.7188 38.9222 11.7436 38.8627 11.7875 38.8187C11.8314 38.7748 11.891 38.7501 11.9531 38.75H15.7031V43.2031H11.7188V38.9844ZM11.7188 45.5469H15.7031V50H11.9531C11.891 49.9999 11.8314 49.9752 11.7875 49.9313C11.7436 49.8873 11.7188 49.8278 11.7188 49.7656V45.5469ZM58.2031 52.3438H68.0469C68.7304 52.3429 69.3857 52.071 69.869 51.5877C70.3523 51.1044 70.6242 50.4491 70.625 49.7656V38.9844C70.6242 38.3009 70.3523 37.6456 69.869 37.1622C69.3857 36.6789 68.7304 36.407 68.0469 36.4062H58.2031C57.5196 36.407 56.8643 36.6789 56.381 37.1622C55.8977 37.6456 55.6258 38.3009 55.625 38.9844V49.7656C55.6258 50.4491 55.8977 51.1044 56.381 51.5877C56.8643 52.071 57.5196 52.3429 58.2031 52.3438ZM64.2969 38.75H68.0469C68.109 38.7501 68.1686 38.7748 68.2125 38.8187C68.2564 38.8627 68.2812 38.9222 68.2812 38.9844V43.2031H64.2969V38.75ZM64.2969 45.5469H68.2812V49.7656C68.2812 49.8278 68.2564 49.8873 68.2125 49.9313C68.1686 49.9752 68.109 49.9999 68.0469 50H64.2969V45.5469ZM57.9688 38.9844C57.9688 38.9222 57.9935 38.8627 58.0375 38.8187C58.0814 38.7748 58.141 38.7501 58.2031 38.75H61.9531V43.2031H57.9688V38.9844ZM57.9688 45.5469H61.9531V50H58.2031C58.141 49.9999 58.0814 49.9752 58.0375 49.9313C57.9935 49.8873 57.9688 49.8278 57.9688 49.7656V45.5469ZM11.9531 72.9688H21.7969C22.4804 72.9679 23.1357 72.696 23.619 72.2127C24.1023 71.7294 24.3742 71.0741 24.375 70.3906V59.6094C24.3742 58.9259 24.1023 58.2706 23.619 57.7873C23.1357 57.304 22.4804 57.0321 21.7969 57.0312H11.9531C11.2696 57.0321 10.6143 57.304 10.131 57.7873C9.64772 58.2706 9.37583 58.9259 9.375 59.6094V70.3906C9.37583 71.0741 9.64772 71.7294 10.131 72.2127C10.6143 72.696 11.2696 72.9679 11.9531 72.9688ZM18.0469 59.375H21.7969C21.859 59.3751 21.9186 59.3998 21.9625 59.4437C22.0064 59.4877 22.0312 59.5472 22.0312 59.6094V63.8281H18.0469V59.375ZM18.0469 66.1719H22.0312V70.3906C22.0312 70.4528 22.0064 70.5123 21.9625 70.5563C21.9186 70.6002 21.859 70.6249 21.7969 70.625H18.0469V66.1719ZM11.7188 59.6094C11.7188 59.5472 11.7436 59.4877 11.7875 59.4437C11.8314 59.3998 11.891 59.3751 11.9531 59.375H15.7031V63.8281H11.7188V59.6094ZM11.7188 66.1719H15.7031V70.625H11.9531C11.891 70.6249 11.8314 70.6002 11.7875 70.5563C11.7436 70.5123 11.7188 70.4528 11.7188 70.3906V66.1719ZM61.7541 8.61875L59.1952 8.24687L58.0508 5.92797C57.9153 5.65348 57.7057 5.42237 57.4457 5.26077C57.1857 5.09918 56.8857 5.01354 56.5795 5.01354C56.2734 5.01354 55.9734 5.09918 55.7134 5.26077C55.4534 5.42237 55.2438 5.65348 55.1083 5.92797L53.9639 8.24672L51.405 8.61859C51.102 8.66259 50.8174 8.79048 50.5834 8.9878C50.3493 9.18512 50.1751 9.444 50.0805 9.73515C49.9859 10.0263 49.9746 10.3381 50.048 10.6354C50.1213 10.9326 50.2764 11.2033 50.4956 11.417L52.3473 13.2222L51.9103 15.7706C51.8576 16.0726 51.8907 16.3832 52.0058 16.6673C52.1209 16.9514 52.3133 17.1975 52.5613 17.3777C52.8092 17.5578 53.1027 17.6648 53.4085 17.6865C53.7142 17.7082 54.0199 17.6437 54.2908 17.5003L56.5795 16.2969L58.8684 17.5002C59.1394 17.6426 59.4448 17.7063 59.7501 17.6842C60.0554 17.6622 60.3484 17.5551 60.596 17.3752C60.8437 17.1953 61.036 16.9497 61.1514 16.6661C61.2667 16.3826 61.3004 16.0725 61.2487 15.7708L60.8117 13.222L62.6633 11.4172C62.8825 11.2035 63.0376 10.9328 63.1109 10.6355C63.1843 10.3383 63.1731 10.0265 63.0785 9.73537C62.9839 9.44421 62.8097 9.18534 62.5757 8.98801C62.3416 8.79068 62.057 8.66277 61.7541 8.61875ZM58.9109 11.8019C58.7205 11.9875 58.5781 12.2167 58.496 12.4697C58.4138 12.7227 58.3945 12.9918 58.4395 13.2539L58.6981 14.7627L57.3431 14.0503C57.1077 13.9265 56.8457 13.8619 56.5797 13.8619C56.3137 13.8619 56.0517 13.9265 55.8162 14.0503L54.4614 14.7628L54.72 13.2541C54.765 12.9919 54.7456 12.7227 54.6634 12.4696C54.5812 12.2166 54.4386 11.9874 54.2481 11.8017L53.152 10.7333L54.6672 10.513C54.9303 10.4747 55.1802 10.373 55.3954 10.2166C55.6105 10.0603 55.7844 9.85407 55.9022 9.61563L56.5797 8.24281L57.257 9.61531C57.3747 9.85396 57.5486 10.0604 57.7639 10.2168C57.9791 10.3732 58.2292 10.4749 58.4925 10.5131L60.0073 10.7331L58.9109 11.8019Z" fill="#332827"/>
</g>
<defs>
<clipPath id="clip0_159_662">
<rect width="80" height="80" fill="white"/>
</clipPath>
</defs>
</svg>
