<svg width="80" height="80" viewBox="0 0 80 80" fill="none" xmlns="http://www.w3.org/2000/svg">
<path d="M53.4025 29.3976H52.5992V6.43506H53.4025V29.3976Z" fill="#6D6E71"/>
<path d="M61.66 29.3976H60.8567V6.43506H61.66V29.3976Z" fill="#6D6E71"/>
<mask id="mask0_170_8" style="mask-type:luminance" maskUnits="userSpaceOnUse" x="41" y="29" width="31" height="44">
<path d="M41.8133 29.3926H71.9925V72.0351H41.8133V29.3926Z" fill="white"/>
</mask>
<g mask="url(#mask0_170_8)">
<path d="M71.9925 38.8516V68.5225C71.9925 69.0616 71.7142 69.5633 71.2583 69.8483L68.5767 71.525C68.075 71.8391 67.4933 72.0058 66.9 72.0058H46.9208C46.7708 72.0058 46.6233 71.995 46.4758 71.9741C46.315 71.9516 46.155 71.9158 46.0008 71.8658C45.8658 71.785 45.7167 71.7266 45.5558 71.695C45.4692 71.6533 45.3808 71.6075 45.2983 71.5558C45.2792 71.5475 45.2633 71.535 45.2442 71.525L44.9883 71.3641L42.5625 69.8483C42.4542 69.78 42.3567 69.6991 42.2692 69.6091C41.9908 69.3216 41.83 68.9325 41.83 68.5225V38.8516C41.83 33.63 46.0592 29.3975 51.2767 29.3975H62.5442C67.7608 29.3975 71.9925 33.63 71.9925 38.8516Z" fill="#4EACB7"/>
</g>
<path d="M47.01 73.0533C47.01 73.9067 46.3192 74.5975 45.4692 74.5975C45.0192 74.5975 44.6175 74.4067 44.3375 74.1025C44.3825 74.1317 44.4142 74.15 44.4283 74.1542C44.435 74.1583 44.4367 74.16 44.4367 74.16C44.485 74.1925 44.5408 74.225 44.6058 74.2583C44.6258 74.2683 44.6492 74.2817 44.6742 74.2917C44.7658 74.3375 44.8733 74.3767 44.9925 74.4025C45.0217 74.4083 45.0508 74.4167 45.0792 74.4208C45.1092 74.4267 45.1375 74.4333 45.1692 74.435C45.2208 74.4392 45.275 74.4433 45.3308 74.4433C46.1092 74.4433 46.74 73.8133 46.74 73.0342C46.74 72.5225 46.465 72.0725 46.0533 71.8267C46.2067 71.8767 46.3675 71.9117 46.5275 71.935C46.825 72.2142 47.01 72.6117 47.01 73.0533Z" fill="black"/>
<path d="M46.74 73.0341C46.74 73.8133 46.1092 74.4433 45.3308 74.4433C45.275 74.4433 45.2208 74.4391 45.1692 74.435C45.1375 74.4333 45.1092 74.4266 45.0792 74.4208C45.0508 74.4166 45.0217 74.4083 44.9925 74.4025C44.8758 74.375 44.7675 74.3333 44.6742 74.2916C44.6492 74.2816 44.6258 74.2683 44.6058 74.2583C44.5408 74.225 44.485 74.1925 44.4367 74.16C44.4367 74.16 44.435 74.1583 44.4283 74.1541C44.3783 74.1233 44.3392 74.0925 44.3117 74.0708C44.31 74.0691 44.31 74.0691 44.3083 74.0691L44.3058 74.065C44.2975 74.0566 44.2917 74.0525 44.285 74.0483C44.2917 74.0541 44.2975 74.0608 44.3083 74.0691C44.3158 74.08 44.3267 74.09 44.3375 74.1025C44.0417 73.915 43.1592 73.2158 42.6392 71.325H45.04L45.2958 71.485C45.315 71.4958 45.3308 71.5083 45.35 71.5166C45.4333 71.5691 45.5208 71.615 45.6083 71.6558C45.7517 71.725 45.9008 71.7833 46.0533 71.8266C46.465 72.0725 46.74 72.5225 46.74 73.0341Z" fill="#6D6E71"/>
<path d="M45.04 71.3641H42.6392C42.5025 70.8666 42.39 70.2858 42.3217 69.6091C42.4092 69.6991 42.5067 69.78 42.615 69.8483L45.04 71.3641Z" fill="black"/>
<path d="M45.6733 73.2251C45.6733 73.4126 45.5208 73.5651 45.3333 73.5651C45.145 73.5651 44.9933 73.4126 44.9933 73.2251C44.9933 73.0368 45.145 72.8843 45.3333 72.8843C45.5208 72.8843 45.6733 73.0368 45.6733 73.2251Z" fill="black"/>
<path d="M66.8125 73.0533C66.8125 73.9067 67.5033 74.5975 68.3542 74.5975C68.8033 74.5975 69.205 74.4067 69.4858 74.1025C69.44 74.1317 69.4092 74.15 69.3942 74.1542C69.3875 74.1583 69.3858 74.16 69.3858 74.16C69.3375 74.1925 69.2817 74.225 69.2175 74.2583C69.1967 74.2683 69.1742 74.2817 69.1483 74.2917C69.0575 74.3375 68.9492 74.3767 68.83 74.4025C68.8017 74.4083 68.7725 74.4167 68.7433 74.4208C68.7142 74.4267 68.685 74.4333 68.6542 74.435C68.6017 74.4392 68.5475 74.4433 68.4917 74.4433C67.7133 74.4433 67.0833 73.8133 67.0833 73.0342C67.0833 72.5225 67.3575 72.0725 67.77 71.8267C67.6158 71.8767 67.455 71.9117 67.2958 71.935C66.9975 72.2142 66.8125 72.6117 66.8125 73.0533Z" fill="black"/>
<path d="M67.0833 73.0341C67.0833 73.8133 67.7133 74.4433 68.4917 74.4433C68.5475 74.4433 68.6017 74.4391 68.6542 74.435C68.685 74.4333 68.7142 74.4266 68.7433 74.4208C68.7725 74.4166 68.8017 74.4083 68.83 74.4025C68.9467 74.375 69.055 74.3333 69.1483 74.2916C69.1742 74.2816 69.1967 74.2683 69.2175 74.2583C69.2817 74.225 69.3375 74.1925 69.3858 74.16C69.3858 74.16 69.3875 74.1583 69.3942 74.1541C69.4442 74.1233 69.4842 74.0925 69.5108 74.0708C69.5125 74.0691 69.5125 74.0691 69.515 74.0691L69.5167 74.065C69.5258 74.0566 69.5317 74.0525 69.5375 74.0483C69.5317 74.0541 69.5258 74.0608 69.515 74.0691C69.5067 74.08 69.4958 74.09 69.4858 74.1025C69.7817 73.915 70.6625 73.2158 71.1833 71.325H68.7825L68.5267 71.485C68.5083 71.4958 68.4917 71.5083 68.4725 71.5166C68.3892 71.5691 68.3025 71.615 68.215 71.6558C68.0708 71.725 67.9217 71.7833 67.77 71.8266C67.3575 72.0725 67.0833 72.5225 67.0833 73.0341Z" fill="#6D6E71"/>
<path d="M68.7825 71.3641H71.1833C71.32 70.8666 71.4325 70.2858 71.5017 69.6091C71.4142 69.6991 71.3167 69.78 71.2083 69.8483L68.7825 71.3641Z" fill="black"/>
<path d="M68.1492 73.2251C68.1492 73.4126 68.3017 73.5651 68.4892 73.5651C68.6775 73.5651 68.83 73.4126 68.83 73.2251C68.83 73.0368 68.6775 72.8843 68.4892 72.8843C68.3017 72.8843 68.1492 73.0368 68.1492 73.2251Z" fill="black"/>
<path d="M62.23 28.7892H61.5383C61.2033 28.7142 57.2917 27.8734 53.0692 28.7892H52.3758C52.2608 28.7892 52.1675 28.8825 52.1675 28.9975V29.3975C52.1675 29.5125 52.2608 29.6059 52.3758 29.6059H53.8058C53.9208 29.6059 54.0142 29.5125 54.0142 29.3975V29.0342C56.7858 28.5784 59.3142 28.8384 60.5925 29.0384V29.3975C60.5925 29.5125 60.685 29.6059 60.8008 29.6059H62.23C62.3458 29.6059 62.4383 29.5125 62.4383 29.3975V28.9975C62.4383 28.8825 62.3458 28.7892 62.23 28.7892Z" fill="black"/>
<path d="M61.9858 4.76074H52.2733C52.17 4.76074 52.0858 4.84491 52.0858 4.94908V5.73324H52.3767V6.24658C52.3767 6.35074 52.4617 6.43491 52.565 6.43491H53.4367C53.5408 6.43491 53.625 6.35074 53.625 6.24658V5.92158C53.625 5.81741 53.7092 5.73324 53.8133 5.73324H60.4458C60.55 5.73324 60.635 5.81741 60.635 5.92158V6.24658C60.635 6.35074 60.7192 6.43491 60.8225 6.43491H61.6942C61.7983 6.43491 61.8825 6.35074 61.8825 6.24658V5.73324H62.1742V4.94908C62.1742 4.84491 62.09 4.76074 61.9858 4.76074Z" fill="#493F39"/>
<mask id="mask1_170_8" style="mask-type:luminance" maskUnits="userSpaceOnUse" x="8" y="18" width="37" height="51">
<path d="M8 18.5601H44.16V68.9067H8V18.5601Z" fill="white"/>
</mask>
<g mask="url(#mask1_170_8)">
<path d="M44.0025 23.5643V65.4243C44.0025 65.5435 43.9958 65.661 43.985 65.7768C42.0217 66.6735 37.5042 66.266 36.5992 66.926C35.6908 67.5868 35.8558 68.8543 35.8558 68.8543H16.1467C16.1467 68.8543 16.3125 67.5868 15.4033 66.926C14.4983 66.266 9.98167 66.6735 8.01833 65.7768C8.00667 65.661 8 65.5435 8 65.4243V23.5643C8 20.826 10.2175 18.606 12.955 18.606H39.0483C41.785 18.606 44.0025 20.826 44.0025 23.5643Z" fill="#E0786C"/>
</g>
<mask id="mask2_170_8" style="mask-type:luminance" maskUnits="userSpaceOnUse" x="8" y="65" width="9" height="7">
<path d="M8 65.7065H16.2133V71.4665H8V65.7065Z" fill="white"/>
</mask>
<g mask="url(#mask2_170_8)">
<path d="M16.1467 68.8541C16.1467 68.8541 16.0508 70.2425 15.2375 71.14C15.1858 71.1983 15.1317 71.2525 15.0733 71.305H10.505C10.5033 71.3033 10.5033 71.3033 10.5017 71.3025C8.055 69.07 8 65.7683 8 65.7683C8.00667 65.7708 8.01167 65.7733 8.01833 65.7766C9.98167 66.6733 14.4983 66.2658 15.4033 66.9258C16.3125 67.5866 16.1467 68.8541 16.1467 68.8541Z" fill="#493F39"/>
</g>
<path d="M15.4192 72.0774C15.4192 73.4691 14.2908 74.5974 12.9 74.5974C11.5083 74.5974 10.3817 73.4691 10.3817 72.0774C10.3817 71.8057 10.4242 71.5466 10.5017 71.3024C10.5033 71.3032 10.5033 71.3032 10.505 71.3049H15.0733C15.1317 71.2524 15.1858 71.1982 15.2375 71.1399C15.3542 71.4291 15.4192 71.7449 15.4192 72.0774Z" fill="black"/>
<path d="M14.9367 72.0774C14.9367 73.2024 14.0242 74.1149 12.9 74.1149C11.7758 74.1149 10.8625 73.2024 10.8625 72.0774C10.8625 71.8041 10.9167 71.5433 11.0142 71.3049H14.7842C14.8817 71.5433 14.9367 71.8041 14.9367 72.0774Z" fill="#6D6E71"/>
<path d="M44.0025 65.7683C44.0025 65.7683 43.9483 69.07 41.5008 71.3025C41.4992 71.3033 41.4992 71.3033 41.4975 71.305H36.93C36.8717 71.2525 36.8175 71.1983 36.7658 71.14C35.9517 70.2425 35.8558 68.8541 35.8558 68.8541C35.8558 68.8541 35.6908 67.5866 36.5992 66.9258C37.5042 66.2658 42.0217 66.6733 43.985 65.7766C43.9917 65.7733 43.9958 65.7708 44.0025 65.7683Z" fill="#493F39"/>
<path d="M41.6217 72.0774C41.6217 73.4691 40.495 74.5974 39.1025 74.5974C37.7125 74.5974 36.5842 73.4691 36.5842 72.0774C36.5842 71.7449 36.6483 71.4291 36.7658 71.1399C36.8175 71.1982 36.8717 71.2524 36.93 71.3049H41.4975C41.4992 71.3032 41.4992 71.3032 41.5008 71.3024C41.5783 71.5466 41.6217 71.8057 41.6217 72.0774Z" fill="black"/>
<path d="M41.1408 72.0774C41.1408 73.2024 40.2292 74.1149 39.1025 74.1149C37.9783 74.1149 37.0667 73.2024 37.0667 72.0774C37.0667 71.8041 37.1217 71.5433 37.2183 71.3049H40.9883C41.0867 71.5433 41.1408 71.8041 41.1408 72.0774Z" fill="#6D6E71"/>
<path d="M14.8492 63.7016H14.005C13.9567 63.7016 13.9183 63.6625 13.9183 63.615V23.7058C13.9183 23.6583 13.9567 23.6191 14.005 23.6191H14.8492C14.8975 23.6191 14.9367 23.6583 14.9367 23.7058V63.615C14.9367 63.6625 14.8975 63.7016 14.8492 63.7016Z" fill="#FFAD93"/>
<path d="M20.4367 63.7016H19.5925C19.5442 63.7016 19.5058 63.6625 19.5058 63.615V23.7058C19.5058 23.6583 19.5442 23.6191 19.5925 23.6191H20.4367C20.485 23.6191 20.5242 23.6583 20.5242 23.7058V63.615C20.5242 63.6625 20.485 63.7016 20.4367 63.7016Z" fill="#FFAD93"/>
<path d="M26.0242 63.7016H25.18C25.1325 63.7016 25.0933 63.6625 25.0933 63.615V23.7058C25.0933 23.6583 25.1325 23.6191 25.18 23.6191H26.0242C26.0725 23.6191 26.1117 23.6583 26.1117 23.7058V63.615C26.1117 63.6625 26.0725 63.7016 26.0242 63.7016Z" fill="#FFAD93"/>
<path d="M31.6125 63.7016H30.7675C30.72 63.7016 30.6808 63.6625 30.6808 63.615V23.7058C30.6808 23.6583 30.72 23.6191 30.7675 23.6191H31.6125C31.66 23.6191 31.6992 23.6583 31.6992 23.7058V63.615C31.6992 63.6625 31.66 63.7016 31.6125 63.7016Z" fill="#FFAD93"/>
<path d="M37.2 63.7016H36.3558C36.3075 63.7016 36.2683 63.6625 36.2683 63.615V23.7058C36.2683 23.6583 36.3075 23.6191 36.3558 23.6191H37.2C37.2475 23.6191 37.2867 23.6583 37.2867 23.7058V63.615C37.2867 63.6625 37.2475 63.7016 37.2 63.7016Z" fill="#FFAD93"/>
<path d="M20.1592 18.6049H18.1092V3.61157H20.1592V18.6049Z" fill="#BC7E4A"/>
<path d="M33.8942 18.6049H31.8442V3.61157H33.8942V18.6049Z" fill="#BC7E4A"/>
<path d="M20.8683 3.78661V4.59078C20.8683 4.80995 20.6908 4.98745 20.4717 4.98745H17.9408C17.7225 4.98745 17.5442 4.80995 17.5442 4.59078V1.98661C17.5442 1.33161 18.075 0.800781 18.73 0.800781H33.2725C33.9283 0.800781 34.4583 1.33161 34.4583 1.98661V4.59078C34.4583 4.80995 34.2808 4.98745 34.0617 4.98745H31.6217C31.4025 4.98745 31.2242 4.80995 31.2242 4.59078V3.78661C31.2242 3.56828 31.0467 3.38995 30.8267 3.38995H21.2667C21.0467 3.38995 20.8683 3.56828 20.8683 3.78661Z" fill="#493F39"/>
<mask id="mask3_170_8" style="mask-type:luminance" maskUnits="userSpaceOnUse" x="35" y="74" width="3" height="2">
<path d="M35.6267 74.8799H37.5467V75.3599H35.6267V74.8799Z" fill="white"/>
</mask>
<g mask="url(#mask3_170_8)">
<path d="M37.3633 75.0239V75.0789C37.3633 75.2281 37.2433 75.3498 37.0933 75.3498H36.0233C35.8725 75.3498 35.7525 75.2281 35.7525 75.0789V75.0239H37.3633Z" fill="#241F21"/>
</g>
<mask id="mask4_170_8" style="mask-type:luminance" maskUnits="userSpaceOnUse" x="55" y="74" width="2" height="2">
<path d="M55.2533 74.8799H56.96V75.3599H55.2533V74.8799Z" fill="white"/>
</mask>
<g mask="url(#mask4_170_8)">
<path d="M56.9117 75.0239V75.0789C56.9117 75.2281 56.79 75.3498 56.6408 75.3498H55.5708C55.4208 75.3498 55.3008 75.2281 55.3008 75.0789V75.0239H56.9117Z" fill="#241F21"/>
</g>
<path d="M28.2017 2.12085V3.66752H23.3025V2.12085H28.2017Z" fill="#28251D"/>
<path d="M23.3025 2.48173V3.22923C23.0567 3.3259 22.7083 3.68673 22.4 4.37257C22.115 5.0059 21.8642 5.91757 21.76 7.15257C21.75 7.2534 21.7425 7.35673 21.7367 7.46257L21.595 18.6117H19.8158L20.0092 7.46257L20.1683 7.15257L22.355 2.89423C22.5742 2.4559 22.8117 2.48173 23.3025 2.48173Z" fill="#FEAE3E"/>
<path d="M16.2567 7.4624H20.0092L19.8158 18.6116H16.2567C14.6225 18.6116 13.2967 17.2849 13.2967 15.6499V10.4241C13.2967 8.88324 14.4717 7.6174 15.9725 7.47657C16.0658 7.46657 16.1608 7.4624 16.2567 7.4624Z" fill="#4EACB7"/>
<path d="M31.6883 18.6117H29.9092L29.7675 7.46257C29.7617 7.35673 29.7533 7.2534 29.7442 7.15257C29.64 5.91757 29.3892 5.0059 29.1042 4.37257C28.7958 3.68673 28.4475 3.3259 28.2017 3.22923V2.48173C28.6925 2.48173 28.93 2.4559 29.1492 2.89423L31.3358 7.15257L31.495 7.46257L31.6883 18.6117Z" fill="#FEAE3E"/>
<path d="M29.7675 7.4624L29.9092 18.6116H21.595L21.7367 7.4624H29.7675Z" fill="#4EACB7"/>
<path d="M38.2067 10.4241V15.6499C38.2067 17.2849 36.8817 18.6116 35.2483 18.6116H31.6883L31.495 7.4624H35.2483C35.3808 7.4624 35.5117 7.47157 35.6383 7.48824C37.0883 7.68074 38.2067 8.92074 38.2067 10.4241Z" fill="#4EACB7"/>
<path d="M16.4683 7.15259H20.1683L20.0092 7.46259H16.2567C16.1608 7.46259 16.0658 7.46675 15.9725 7.47675C16.0583 7.28592 16.2483 7.15259 16.4683 7.15259Z" fill="black"/>
<path d="M29.7442 7.15259C29.7533 7.25342 29.7617 7.35675 29.7675 7.46259H21.7367C21.7425 7.35675 21.75 7.25342 21.76 7.15259H29.7442Z" fill="black"/>
<path d="M35.6383 7.48842C35.5117 7.47175 35.3808 7.46259 35.2483 7.46259H31.495L31.3358 7.15259H35.1392C35.3633 7.15259 35.5583 7.29259 35.6383 7.48842Z" fill="black"/>
<path d="M28.9492 16.56H22.555C22.3233 16.56 22.1358 16.3717 22.1358 16.1409V10.4817H29.3683V16.1409C29.3683 16.3717 29.1808 16.56 28.9492 16.56Z" fill="#C6182C"/>
<path d="M69.09 20.9542L64.9958 14.0992L56.3967 4.48001L50.365 0.0100098L69.09 20.9542Z" fill="#F4D4AA"/>
<path d="M57.9333 3.55176L56.3967 4.48009L65.135 14.2543L66.2275 12.8284L57.9333 3.55176Z" fill="#C6182C"/>
<path d="M68.68 9.62828C69.3217 8.78911 69.2783 7.61161 68.5733 6.82411L66.57 4.92578C66.3008 4.67078 66.0533 4.39411 65.83 4.09911L64.155 1.88245C63.4508 1.09411 62.2858 0.919948 61.3825 1.46578L57.9333 3.55161L66.2275 12.8283L68.68 9.62828Z" fill="#F4D4AA"/>
</svg>
