<svg width="80" height="80" viewBox="0 0 80 80" fill="none" xmlns="http://www.w3.org/2000/svg">
<mask id="mask0_170_3141" style="mask-type:luminance" maskUnits="userSpaceOnUse" x="0" y="9" width="80" height="62">
<path d="M0.213318 9.8999H79.7867V70.0599H0.213318V9.8999Z" fill="white"/>
</mask>
<g mask="url(#mask0_170_3141)">
<path d="M79.485 34.5498C79.46 34.789 79.4108 35.0273 79.3967 35.2698C79.3333 36.3082 79.095 37.309 78.775 38.2982C78.6308 38.7407 78.4275 39.1198 78.1008 39.439C77.6092 39.9198 77.1108 40.3973 76.5558 40.9307C76.545 41.2465 76.5308 41.619 76.5242 41.9948C76.4892 43.7915 75.9833 45.459 75.1258 47.024C74.7083 47.7857 74.1775 48.4632 73.5033 49.0182C72.8992 49.5132 72.2283 49.8248 71.435 49.8598C71.1642 49.8707 70.8758 49.8957 70.63 49.9973C69.8967 50.2957 69.1408 50.2607 68.3858 50.1798C67.7117 50.1057 67.1567 49.7548 66.6617 49.2148C66.3808 49.3865 66.1133 49.534 65.8675 49.7057C63.1808 51.5765 60.5042 53.4723 57.8033 55.3215C56.1567 56.4482 54.555 57.6448 52.7317 58.544C52.7317 58.8315 52.7317 59.1057 52.7317 59.379C52.7392 61.4957 52.2367 63.479 51.1475 65.2965C50.8142 65.8515 50.3967 66.3707 49.9467 66.8415C49.3075 67.5148 48.475 67.7957 47.5616 67.9607C46.4242 68.1682 45.3741 67.9465 44.3233 67.5715C43.2491 67.189 42.2158 66.7182 41.205 66.069C40.9167 66.2273 40.615 66.3815 40.3267 66.5573C38.8867 67.4448 37.3833 68.214 35.845 68.9123C35.2792 69.1682 34.7141 69.4173 34.0816 69.4698C33.8883 69.4873 33.685 69.579 33.5167 69.6882C33.0175 70.004 32.4841 70.0632 31.925 69.9407C30.9175 69.7157 29.9092 69.484 28.9083 69.2348C22.7866 67.7148 16.7558 65.8865 10.8592 63.644C9.47499 63.1173 8.11249 62.5273 6.77748 61.889C5.78749 61.4148 4.84248 60.8323 3.89415 60.2707C3.02332 59.7548 2.24665 59.0915 1.67082 58.2773C0.901651 57.1857 0.202485 56.0448 0.322485 54.5848C0.546651 51.8715 0.725818 49.1548 1.32665 46.4873C1.43165 46.0207 1.57248 45.5573 1.74082 45.104C2.04998 44.2723 2.56998 43.5982 3.31832 43.1107C4.64582 42.244 5.96665 41.3665 7.30082 40.5098C8.22832 39.9165 9.17665 39.3515 10.195 38.7232C10.0158 38.5973 9.93832 38.5232 9.84749 38.4848C8.99415 38.1265 8.69915 37.4632 8.75832 36.5748C8.81499 35.6973 9.07499 34.8798 9.46082 34.104C10.1283 32.7598 11.1717 32.1665 12.8925 32.504C13.2892 32.5807 13.6725 32.7532 14.1183 32.8965C14.1992 32.7107 14.3008 32.5357 14.3467 32.349C14.74 30.8157 15.0767 29.2707 15.5792 27.7615C16.32 25.5257 17.62 23.7323 19.4467 22.2657C21.2092 20.8507 23.155 19.7557 25.1608 18.7515C25.7683 18.4498 26.4425 18.2782 27.1167 18.039C27.2083 17.2598 27.2783 16.474 27.3983 15.6915C27.5175 14.9082 27.6583 14.129 27.8333 13.3573C28.0233 12.5148 28.4942 11.8657 29.2458 11.4023C30.4117 10.6857 31.6758 10.2648 33.0175 10.0648C34.18 9.89316 35.3425 9.90316 36.5225 10.0015C39.4133 10.2365 42.2725 10.6582 45.1 11.304C46.0375 11.5182 46.9717 11.7707 47.8917 12.0548C49.585 12.574 50.0658 12.9498 51.0567 14.4348C52.135 14.189 53.2058 14.5115 54.2808 14.6732C56.395 14.9857 58.4533 15.5582 60.5083 16.1507C62.3025 16.6707 63.6125 17.7407 64.5925 19.2815C64.7575 19.5448 64.9233 19.8082 65.12 20.1207C66.9175 20.5598 68.7617 20.9773 70.5883 21.4615C72.2175 21.8932 73.8333 22.3815 75.4425 22.8832C75.9967 23.0548 76.5242 23.329 77.0508 23.5848C78.175 24.1323 78.8492 25.0523 79.19 26.2382C79.5758 27.5723 79.6917 28.9448 79.745 30.324C79.8075 31.7423 79.6217 33.1457 79.485 34.5498Z" fill="black"/>
</g>
<path d="M50.2942 54.5708C50.2525 54.6342 50.1925 54.69 50.14 54.6967C49.9042 54.7217 49.6342 54.7742 49.4342 54.6867C48.9425 54.4725 48.5733 54.6617 48.1908 54.9217C47.4283 55.4342 46.8633 56.115 46.4067 56.9017C45.2125 58.9583 44.9242 61.18 45.2575 63.4933C45.3775 64.3142 45.6442 65.1042 46.1817 65.7675C46.8842 66.6342 47.7408 66.775 48.6225 66.0942C49.0233 65.785 49.3742 65.3775 49.6625 64.9567C50.6317 63.5242 51.1025 61.9133 51.2283 60.2042C51.3133 59.095 51.1658 58.0033 50.8842 56.9292C50.7717 56.4975 50.67 56.0592 50.6108 55.6167C50.5792 55.3817 50.7442 55.2025 50.9475 55.1675C50.7542 54.95 50.5367 54.75 50.2942 54.5708ZM49.8867 59.6917C49.8767 60.2642 49.7008 60.8433 49.5358 61.3975C49.3742 61.9383 49.0092 62.3625 48.545 62.6825C47.695 63.2683 46.9475 62.7733 46.7225 62.0925C46.6133 61.7692 46.5817 61.4225 46.5367 61.1908C46.6275 60.05 46.7892 59.035 47.26 58.0983C47.6392 57.34 47.955 57.3083 48.735 57.6142C49.7433 58.0108 49.9008 58.8208 49.8867 59.6917ZM73.5842 36.3367C73.37 36.47 73.1342 36.4667 72.92 36.4733C72.4108 36.495 72.0567 36.7542 71.8108 37.1367C71.4592 37.6842 71.1358 38.26 70.8725 38.8533C70.3317 40.0925 70.075 41.4117 69.84 42.7392C69.6817 43.6267 69.615 44.515 69.6508 45.4167C69.6783 46.1467 69.8083 46.8592 70.1067 47.5267C70.5808 48.59 71.3992 48.8075 72.3725 48.1508C72.9242 47.7792 73.3417 47.2733 73.6933 46.7158C74.1708 45.95 74.5217 45.1258 74.7533 44.255C75.2067 42.5567 75.2558 40.8542 74.6942 39.1625C74.5642 38.7692 74.4092 38.3867 74.2758 37.9967C74.2092 37.8042 74.3533 37.5792 74.55 37.5725C74.3075 37.105 73.9775 36.6842 73.5842 36.3367ZM73.2367 43.6233C73.1342 43.9042 72.9517 44.1742 72.7375 44.3883C72.3375 44.7883 71.6983 44.7075 71.4033 44.2342C71.2767 44.0342 71.175 43.7992 71.14 43.5708C70.9925 42.5842 71.1892 41.6542 71.7083 40.7975C71.7617 40.71 71.8317 40.6325 71.9017 40.5592C72.0742 40.3833 72.3475 40.345 72.5658 40.4542C72.92 40.6325 73.1908 40.8925 73.275 41.2892C73.3592 41.6892 73.405 42.1 73.465 42.4717C73.3875 42.8858 73.3592 43.2725 73.2367 43.6233ZM44.6608 66.1742C43.825 65.9325 43.1575 65.7325 42.4617 65.3217C42.775 65.055 43.0342 64.8517 43.2767 64.6233C43.4908 64.4192 43.6842 64.1875 43.9125 63.9383C44.155 64.6617 44.3833 65.3358 44.6608 66.1742ZM67.575 48.7408C67.915 48.3508 68.2317 47.99 68.5442 47.6317C68.7867 47.625 68.7933 47.8208 68.8633 47.9683C69.025 48.3058 69.1975 48.6392 69.3658 48.9758C68.5825 49.2183 68.3333 49.1792 67.575 48.7408Z" fill="#3B464E"/>
<path d="M76.3058 24.8974C75.8042 24.6699 75.3158 24.3991 74.7992 24.2274C73.5908 23.8241 72.3725 23.4482 71.15 23.0899C69.4325 22.5882 67.6692 22.2516 65.9942 21.5949C65.9517 21.5774 65.885 21.6332 65.8117 21.6582C65.9517 22.2232 66.1033 22.7849 66.2367 23.3532C66.4575 24.2832 66.3383 25.2032 66.0992 26.1124C66.0258 26.3932 65.7942 26.5966 65.6042 26.5682C65.32 26.5266 65.2283 26.2916 65.1583 26.0557C65.12 25.9266 65.1092 25.7857 65.0842 25.6491C64.9583 24.9716 64.825 24.2941 64.7017 23.6166C64.4275 22.0966 63.8233 20.7282 62.9 19.4857C62.2642 18.6291 61.4883 17.9832 60.4517 17.6741C59.1 17.2741 57.7508 16.8532 56.395 16.4599C54.7517 15.9791 53.0167 15.8349 51.3658 15.0732C51.3658 15.2807 51.3867 15.4141 51.3625 15.5407C51.2742 15.9757 51.1792 16.4107 51.0675 16.8391C51.06 16.8632 51.0425 16.8849 51.0217 16.9091C51.0675 17.3866 51.0775 17.8674 51.0533 18.3449C51.1692 18.3941 51.295 18.5516 51.3342 18.7307C51.4358 19.2016 51.5625 19.6749 51.5975 20.1524C51.675 21.2332 51.3483 22.1949 50.6 22.9957C49.585 24.0799 46.6275 25.5541 45.1458 25.7999C43.86 26.0141 42.5917 25.8457 41.3308 25.7124C38.725 25.4349 36.1508 24.9782 33.6075 24.3291C31.9992 23.9182 30.4183 23.4416 28.9717 22.6166C28.4942 22.3457 28.0583 22.0024 27.6225 21.6649C27.4017 21.4932 27.2608 21.2407 27.3667 20.9349C27.4117 20.7982 27.4475 20.6649 27.3208 20.5632C26.9692 20.2824 27.0225 19.8957 27.0225 19.5174C27.0225 19.3699 27.1033 19.1766 26.8183 19.0749C26.1192 19.8782 25.1608 20.3632 24.2508 20.9174C23.6608 21.2757 23.06 21.6157 22.495 22.0091C21.645 22.5949 20.795 23.1916 19.9875 23.8341C18.8383 24.7507 17.9433 25.8807 17.3808 27.2532C16.9108 28.4007 16.475 29.5591 16.1867 30.7732C15.8217 32.3174 15.3367 33.8274 14.775 35.3082C14.5817 35.8207 14.3217 36.3124 14.0758 36.8032C14.0167 36.9191 13.9008 37.0141 13.7983 37.1016C13.6792 37.2074 13.4267 37.1232 13.3633 36.9757C13.23 36.6732 13.2717 36.3649 13.3458 36.0632C13.4717 35.5607 13.6233 35.0699 13.7567 34.5674C13.8058 34.3816 13.8233 34.1882 13.8583 33.9641C13.205 33.9249 12.6258 33.8866 12.0425 33.8549C11.5083 33.8232 11.115 34.0549 10.8275 34.4974C10.3883 35.1749 10.1633 35.9291 10.0367 36.7191C9.9875 37.0141 10.0825 37.2741 10.3283 37.4457C10.6342 37.6599 10.9575 37.8532 11.2558 38.0424C11.6808 37.8216 12.0425 37.6216 12.415 37.4457C12.6008 37.3582 12.8292 37.4699 12.9417 37.6599C13.0433 37.8357 13.015 38.0182 12.8958 38.1374C12.6783 38.3549 12.4358 38.5516 12.1833 38.7266C11.0517 39.5166 9.91417 40.2991 8.78 41.0824C7.30416 42.0999 5.84 43.1349 4.35083 44.1357C3.62 44.6274 3.19167 45.2974 2.97 46.1257C2.9075 46.3574 2.84 46.5924 2.79833 46.8274C2.48917 48.5932 2.215 50.3624 2.11333 52.1557C2.04333 53.3949 2.02167 54.6407 1.86417 55.8691C1.78333 56.5082 1.96917 56.9507 2.3975 57.3332C3.17083 58.0207 3.95 58.6916 4.84583 59.2316C6.41583 60.1832 8.08083 60.9274 9.77667 61.6007C15.7058 63.9557 21.8133 65.7599 27.9775 67.3816C29.6075 67.8099 31.2408 68.2316 32.8775 68.6416C33.0633 68.6874 33.2917 68.6874 33.4742 68.6316C33.8358 68.5191 34.1942 68.3824 34.5242 68.2032C35.9225 67.4557 37.31 66.6907 38.6967 65.9249C38.8092 65.8624 38.8933 65.7424 38.9642 65.6799C39.1883 63.8857 39.3925 62.1416 39.635 60.4007C39.835 58.9649 40.1792 57.5607 40.6567 56.1891C40.7233 55.9957 40.7583 55.7816 41.0358 55.7291C41.0467 55.7466 41.0533 55.7641 41.0608 55.7816C41.1558 55.4132 41.3067 55.0799 41.5942 54.8024C41.5667 54.7149 41.6083 54.6374 41.6717 54.5741C41.9175 54.3357 42.1742 54.1041 42.4408 53.8899C45.3425 51.5557 48.3908 49.4249 51.4533 47.3124C52.4717 46.6099 53.4517 45.8416 54.4142 45.0591C54.8917 44.6691 55.3308 44.2166 55.7 43.7249C56.135 43.1457 56.4408 42.4791 56.4267 41.7207C56.4167 41.1491 56.6933 40.7591 57.1467 40.4324C59.0717 39.0391 60.9542 37.5824 62.9108 36.2349C67.0233 33.4024 71.1783 30.6257 75.3158 27.8282C75.5125 27.6949 75.7233 27.5691 75.9375 27.4707C75.9758 27.4532 76.0325 27.4674 76.0917 27.4882C76.5733 27.0882 77.0892 26.7266 77.6125 26.3649C77.4058 25.7082 76.9667 25.1957 76.3058 24.8974ZM32.1817 62.9207C31.8267 63.5282 31.3108 63.8716 30.5833 63.8857C29.8217 63.8999 29.0767 63.8791 28.3292 63.6716C27.3317 63.3949 26.3375 63.1207 25.4067 62.6607C25.1608 62.5382 24.8833 62.4466 24.6792 62.2749C24.1842 61.8607 23.605 61.7024 22.9975 61.5766C19.8608 60.9232 16.7592 60.1266 13.7217 59.0916C12.6467 58.7266 11.6 58.2774 10.5425 57.8632C10.2867 57.7607 10.0192 57.6699 9.90333 57.3116C9.92833 57.3016 9.9525 57.2841 9.9775 57.2666C9.74583 57.1641 9.5175 57.0666 9.28167 56.9816C9.2325 57.0874 9.13417 57.1541 8.98667 57.1857C8.59333 57.2624 8.225 57.1607 7.88417 56.9991C6.76 56.4732 5.6575 55.9041 4.68083 55.1182C4.41417 54.9007 4.13667 54.6899 3.8975 54.4441C3.3325 53.8649 3.07917 53.1699 3.27583 52.3632C3.4375 51.6957 3.64083 51.0357 3.81667 50.3941C4.62833 50.0357 5.39417 50.0532 6.16333 50.3307C7.00583 50.6291 7.84916 50.9307 8.69167 51.2324C9.28917 51.4466 9.8125 51.7874 10.1742 52.3099C10.3883 52.6191 10.6833 52.7416 11.0067 52.8682C14.9575 54.4199 19.0458 55.5149 23.1375 56.6132C24.0367 56.8557 24.9358 57.0174 25.8775 57.0482C27.2225 57.0907 28.5292 57.4557 29.8425 57.7157C30.2817 57.8032 30.71 57.9399 31.1425 58.0557C32.3817 58.3932 32.9125 59.0174 32.905 60.2532C32.9017 61.1974 32.6625 62.0991 32.1817 62.9207ZM39.8633 45.6516C38.89 45.6591 37.935 45.5224 36.9867 45.3607C31.1 44.3566 25.3575 42.8091 19.7167 40.8574C18.5017 40.4366 17.4267 39.7482 16.3383 39.0849C15.9867 38.8707 15.7025 38.5724 15.4633 38.2674C15.4808 38.2041 15.5017 38.1582 15.53 38.1232C15.2633 37.8741 14.9892 37.6216 14.9892 37.3724C15.295 34.0307 16.0008 30.5907 18.2308 27.9582C18.4525 27.5932 19.0392 27.5966 19.5025 27.8599C19.5692 27.8216 19.6567 27.8249 19.7483 27.8391C19.815 27.8499 19.885 27.8674 19.945 27.8949C22.1575 28.8924 24.5142 29.4049 26.8642 29.9307C29.6525 30.5557 32.445 31.1557 35.2483 31.6966C37.2075 32.0724 39.1883 32.3349 41.1625 32.6374C42.2517 32.8024 43.3433 32.9424 44.4358 33.1007C44.7383 33.1457 45.0333 33.2266 45.3808 33.3041C45.3808 33.5466 45.4092 33.7466 45.3775 33.9391C44.9525 36.4524 44.4042 38.9374 43.7617 41.4049C43.5367 42.2757 43.1892 43.0966 42.7817 43.8966C42.1742 45.0907 41.205 45.6449 39.8633 45.6516ZM63.7358 26.9649C63.715 28.0324 63.6658 29.1024 63.6267 30.1699C63.62 30.3766 63.6308 30.5874 63.5917 30.7874C63.2933 32.2866 63.5183 31.9807 62.5242 33.0549C61.6075 34.0449 60.5817 34.9116 59.5067 35.7257C57.0342 37.6074 54.4775 39.3624 51.8008 40.9382C51.5058 41.1132 51.215 41.2999 50.9267 41.4891C50.8742 41.5241 50.8425 41.5941 50.79 41.6649C50.8492 42.0541 50.9508 42.4582 50.9692 42.8649C51.0108 43.8791 50.79 44.8549 50.3825 45.7782C49.915 46.8274 49.1142 47.4732 47.9483 47.6141C47.8108 47.6316 47.6675 47.6599 47.5375 47.6316C46.5925 47.4457 45.6375 47.2807 44.7558 46.8699C44.5692 46.7824 44.39 46.6766 44.2183 46.5574C43.6383 46.1607 43.3192 45.6099 43.3225 44.9007C43.3225 44.5566 43.33 44.2024 43.41 43.8724C43.6425 42.9391 43.92 42.0157 44.1658 41.0857C44.2992 40.5766 44.5833 40.2291 45.0967 40.0849C45.195 40.0574 45.2858 40.0116 45.3633 39.9799C45.6017 39.7099 45.5883 39.3899 45.6333 39.0882C45.8517 37.6249 46.0625 36.1574 46.3008 34.6974C46.3608 34.3391 46.3817 33.9499 46.61 33.6799C46.6842 33.6657 46.7433 33.6691 46.7892 33.6832C46.81 33.6024 46.8417 33.5216 46.8875 33.4482C46.8317 33.4307 46.7608 33.4091 46.68 33.3882C46.8558 33.1566 46.9683 32.9424 47.1367 32.8024C47.8817 32.1882 48.6083 31.5491 49.3992 30.9982C52.6017 28.7766 55.9208 26.7366 59.3417 24.8732C59.9708 24.5291 60.6558 24.2657 61.3367 24.0416C62.2883 23.7257 63.5217 24.5224 63.655 25.5191C63.7292 25.9966 63.7425 26.4841 63.7358 26.9649ZM48.64 46.3257C47.5583 46.2416 46.5858 46.0166 45.6158 45.7816C45.5175 45.7574 45.4225 45.7082 45.3283 45.6657C44.615 45.3574 44.4183 45.0691 44.5025 44.3074C44.6258 43.2157 44.7308 42.1207 45.0367 41.0641C46.0442 41.1099 48.11 41.4857 48.7983 41.7282C49.3108 41.9066 49.5817 42.2399 49.5958 42.7982C49.6342 44.0441 49.2408 45.1641 48.64 46.3257Z" fill="#E0786C"/>
<path d="M46.9508 33.89C46.9825 34.1958 47.0175 34.5116 46.9792 34.81C46.7608 36.4491 46.5225 38.085 46.2908 39.72C46.28 39.7866 46.2975 39.8575 46.3042 39.9766C47.5583 40.25 48.8933 40.2575 50.0658 40.8683C51.2642 40.3875 55.77 37.47 56.8483 36.47C56.82 33.515 56.7958 30.5208 56.7675 27.4358C56.4167 27.6141 56.135 27.7341 55.875 27.8883C53.0617 29.5658 50.2625 31.265 47.5758 33.1425C47.4075 33.2616 47.235 33.3741 47.0492 33.4583C47.0108 33.4758 46.9617 33.4658 46.8942 33.4441C46.8492 33.5183 46.8175 33.5991 46.7958 33.68C46.9017 33.715 46.9433 33.8025 46.9508 33.89ZM49.5775 32.865C49.5775 32.7358 49.6267 32.6091 49.6758 32.3916C49.8275 32.5075 49.9717 32.56 50.01 32.655C50.0942 32.8725 50.1717 33.1108 50.175 33.3425C50.1992 35.3641 50.2067 37.3858 50.2133 39.4075C50.2133 39.51 50.1992 39.6116 50.1858 39.7133C50.1575 39.8958 50.07 40.05 49.8767 40.0675C49.6758 40.0816 49.5742 39.9341 49.5467 39.7516C49.5217 39.5833 49.5075 39.4116 49.5108 39.2391C49.5283 37.1158 49.5533 34.9925 49.5775 32.865ZM15.53 38.1233C15.2633 37.8741 14.9892 37.6216 14.9892 37.3725C15.295 34.0308 16.0008 30.5908 18.2308 27.9583C18.4525 27.5933 19.0392 27.5966 19.5025 27.86C19.4392 27.895 19.3975 27.9691 19.39 28.1058C19.9658 28.6358 20.6617 29.0083 21.4167 29.2466C22.6317 29.6291 23.8475 30.0083 25.0833 30.3175C28.4583 31.1558 31.855 31.9033 35.2758 32.5141C38.1558 33.03 41.0325 33.5883 43.9725 33.7075C44.1725 33.715 44.3725 33.7675 44.6925 33.8166C44.5942 34.1641 44.5375 34.3925 44.4642 34.6166C44.085 35.7608 43.7508 36.9158 43.5192 38.1025C43.3542 38.9441 43.14 39.78 42.9358 40.6191C42.715 41.5241 42.3917 42.3916 42.0192 43.2475C41.5242 44.3916 40.6325 44.8025 39.4625 44.7816C39.3258 44.7783 39.1883 44.7675 39.0483 44.7566C37.2292 44.585 35.4267 44.2975 33.6392 43.925C29.2208 43.0058 24.8725 41.8225 20.5875 40.4083C19.1058 39.92 17.7325 39.2183 16.4083 38.4041C16.2325 38.295 16.0675 38.165 15.8817 38.0808C15.7583 38.025 15.6217 37.9966 15.53 38.1233ZM78.0408 32.0725C78.1958 32.5458 78.0692 32.9316 77.9992 33.3675C77.56 33.6091 77.1208 33.8516 76.675 34.0975C76.4708 33.6091 76.4708 33.6091 76.5167 32.8408C76.9875 32.6025 77.4967 32.3458 78.0408 32.0725ZM78.1258 29.9241C78.1258 30.3841 78.1258 30.7208 78.1258 31.1141C77.6583 31.4716 77.1 31.7141 76.5483 31.9666C76.2567 31.2475 76.3133 30.9766 76.84 30.6508C77.2192 30.4191 77.6125 30.2116 78.1258 29.9241ZM76.5133 36.305C76.5133 35.7891 76.5133 35.4208 76.5133 35.0166C76.9275 34.8341 77.325 34.6591 77.7633 34.4625C77.9917 34.8658 77.7675 35.2033 77.7325 35.5641C77.3492 35.8 76.9767 36.0241 76.5133 36.305ZM61.5267 24.5608C61.73 24.645 61.8533 24.7016 61.98 24.7541C62.5592 24.9891 62.83 25.4141 62.8083 26.0425C62.7875 26.6633 62.8083 27.285 62.7842 27.9025C62.7558 28.59 62.6858 29.2783 62.6642 29.9658C62.6433 30.6191 62.6608 31.2716 62.6608 31.8825C61.0808 33.1741 59.56 34.4166 58.0392 35.6558C57.965 35.7158 57.8567 35.7333 57.7617 35.7683C57.7267 35.6908 57.6808 35.635 57.6808 35.575C57.6142 32.7533 57.5475 29.9275 57.4842 27.0283C58.7417 26.1758 60.2025 25.5366 61.5267 24.5608ZM31.0542 63.2083C29.1333 62.8966 27.2958 62.4858 25.5508 61.7166C25.3608 61.6325 25.1817 61.5275 25.01 61.4183C24.5283 61.12 24.2683 60.6783 24.335 60.1166C24.4333 59.3058 24.5075 58.4808 24.7642 57.7225C24.8725 57.6908 24.9433 57.645 24.9992 57.6558C26.8433 58.0775 28.6867 58.505 30.5275 58.9366C30.7625 58.9933 30.9942 59.06 31.2158 59.1508C31.56 59.2916 31.7708 59.5475 31.795 59.9341C31.8025 60.0358 31.8133 60.1408 31.8167 60.2425C31.8442 61.0466 31.525 62.3275 31.0542 63.2083ZM9.22916 56.3783C9.0925 56.3675 8.94083 56.3958 8.825 56.3433C7.45166 55.7216 6.08916 55.0866 4.85666 54.185C4.1325 53.6583 3.8375 53.0266 3.96083 52.1558C4.03083 51.6541 4.02416 51.1341 4.30166 50.6116C4.50166 50.6358 4.70916 50.6183 4.88833 50.6891C6.07166 51.145 7.24833 51.6191 8.425 52.0925C8.5825 52.1558 8.72666 52.2541 8.87083 52.3458C9.405 52.6891 9.71416 53.17 9.6225 53.8125C9.54166 54.385 9.38 54.9466 9.2575 55.515C9.19416 55.81 9.01166 56.0941 9.19416 56.4066L9.22916 56.3783Z" fill="#C6E8E9"/>
<path d="M51.025 16.9091C50.9758 16.9583 50.895 17.0041 50.8392 17.0074C50.7583 17.0149 50.6283 16.9474 50.5858 16.8774C50.4842 16.7024 50.4275 16.5024 50.3433 16.3124C49.7392 14.9258 48.8825 13.8308 47.2983 13.4799C46.3258 13.2658 45.3733 12.9466 44.4008 12.7291C42.1808 12.2308 39.9367 11.8866 37.6717 11.6483C36.4317 11.5141 35.195 11.4441 33.955 11.4933C32.7333 11.5391 31.5808 11.8758 30.4675 12.3708C29.695 12.7149 29.2067 13.2591 29 14.1116C28.7542 15.1191 28.5817 16.1333 28.4342 17.1549C28.2725 18.2749 28.0933 19.3908 27.9042 20.6299C29.495 21.5708 31.2225 22.2341 33.0317 22.6933C35.4058 23.2974 37.8017 23.7749 40.2317 24.0833C41.5317 24.2483 42.8308 24.4133 44.1483 24.3749C44.7417 24.3574 45.3175 24.2699 45.8658 24.0449C46.8908 23.6308 47.8642 23.1116 48.7808 22.4933C49.3675 22.0966 49.82 21.5983 50.0025 20.8858C50.1292 20.3874 50.2875 19.8924 50.4242 19.3974C50.4875 19.1658 50.5192 18.9208 50.6108 18.6991C50.67 18.5591 50.7967 18.4183 50.93 18.3416C50.965 18.3199 51.0108 18.3241 51.0567 18.3416C51.0808 17.8674 51.0708 17.3866 51.025 16.9091ZM31.1175 19.0816C31.1142 19.1524 31.1067 19.2191 31.0967 19.2858C31.0542 19.4999 30.9592 19.6783 30.7242 19.7208C30.5242 19.7558 30.2783 19.5383 30.2783 19.2541C30.2783 18.7066 30.3058 18.1549 30.3658 17.6116C30.4325 16.9966 30.5483 16.3899 30.65 15.7124C30.3625 15.5758 30.0675 15.4349 29.7758 15.2983C29.7333 15.0699 29.8675 14.9508 30.0425 14.9258C30.9175 14.8066 31.7458 14.9824 32.5333 15.3716C32.5892 15.3999 32.6033 15.5441 32.6 15.6316C32.5958 15.6699 32.4975 15.7408 32.445 15.7366C32.0767 15.7191 31.7075 15.6916 31.3175 15.6633C31.2442 16.8916 31.1808 17.9866 31.1175 19.0816ZM35.2658 19.9808C35.255 20.0791 35.2167 20.1908 35.1492 20.2574C35.0933 20.3208 34.9842 20.3524 34.8933 20.3558C34.8475 20.3591 34.76 20.2858 34.7492 20.2366C34.6825 19.9066 34.6333 19.5699 34.5808 19.2541C34.1275 19.1208 33.7092 18.9941 33.2175 18.8466C33.1442 18.9766 33.0458 19.1449 32.9583 19.3174C32.8667 19.4999 32.7892 19.6924 32.6908 19.8683C32.6667 19.9099 32.5717 19.9416 32.515 19.9316C32.4625 19.9241 32.3817 19.8574 32.3783 19.8158C32.3675 19.6466 32.3467 19.4683 32.3925 19.3099C32.6908 18.2466 33.0775 17.2183 33.6042 16.2424C33.7025 16.0633 33.8325 15.8949 33.9733 15.7474C34.3133 15.3999 34.7667 15.4633 34.9917 15.9058C35.1142 16.1474 35.2092 16.4183 35.2517 16.6849C35.4267 17.7766 35.3675 18.8783 35.2658 19.9808ZM39.0725 19.6158C39.115 19.7808 39.1708 19.9449 39.2025 20.1141C39.3325 20.8124 39.245 21.2583 39.0025 21.2091C38.5425 21.1141 38.5142 20.6891 38.395 20.3416C38.3075 20.0858 38.2442 19.8158 38.1733 19.5666C37.8783 19.4958 37.815 19.7449 37.675 19.8608C37.5133 19.9908 37.38 20.1524 37.225 20.2891C36.9375 20.5416 36.7233 20.5841 36.6075 20.4158C36.4383 20.1699 36.5408 19.9558 36.6883 19.7558C36.955 19.3974 37.215 19.0291 37.5067 18.6924C37.815 18.3341 37.8542 17.9691 37.65 17.5516C37.5308 17.3058 37.4467 17.0391 37.3658 16.7791C37.3133 16.6108 37.3025 16.3899 37.485 16.3408C37.605 16.3091 37.805 16.4358 37.9067 16.5441C38.0892 16.7441 38.2225 16.9866 38.4233 17.2816C38.8758 17.0216 39.1292 16.3691 39.7717 16.7933C39.7117 17.5266 39.1117 17.9308 38.8167 18.5516C38.8975 18.8849 38.9817 19.2508 39.0725 19.6158ZM42.4483 17.5624C42.4233 17.9724 42.3708 18.3833 42.3325 18.7941C42.3458 18.7941 42.36 18.7974 42.3742 18.7974C42.3008 19.5133 42.2342 20.2333 42.1533 20.9491C42.125 21.1949 42.0192 21.4091 41.8017 21.5533C41.6683 21.6408 41.3942 21.6058 41.3483 21.4616C41.2783 21.2366 41.1733 20.9949 41.1942 20.7699C41.2925 19.7099 41.4258 18.6533 41.5525 17.5974C41.5592 17.5308 41.5842 17.4641 41.6017 17.3974C41.7317 16.9124 41.9425 16.6491 42.125 16.7549C42.4342 16.9374 42.4658 17.2533 42.4483 17.5624ZM46.4383 21.3699C46.4342 21.7566 46.3575 22.1216 46.115 22.4374C46.0167 22.5641 45.7317 22.5641 45.6725 22.4233C45.595 22.2374 45.5 22.0374 45.4933 21.8408C45.4792 21.5316 45.525 21.2233 45.5567 20.9141C45.6967 19.5033 45.69 18.0883 45.6158 16.6774C45.5983 16.3058 45.4933 15.9366 45.4225 15.5408C43.3083 14.9224 41.3133 14.3824 39.2733 14.0591C38.0475 13.8658 36.8142 13.7258 35.585 13.5674C34.38 13.4133 33.1825 13.2733 31.985 13.1116C31.8442 13.0941 31.7183 12.9674 31.4683 12.8274C31.75 12.7216 31.9008 12.6233 32.0592 12.6166C32.505 12.5924 32.9583 12.5641 33.4008 12.6099C35.7292 12.8549 38.065 13.0908 40.3867 13.3991C42.0967 13.6274 43.755 14.0974 45.3425 14.7999C45.855 15.0241 46.22 15.3124 46.28 15.9091C46.3217 16.3199 46.4592 16.7233 46.4625 17.1308C46.4767 18.5449 46.4517 19.9558 46.4383 21.3699ZM75.7692 31.2508C75.6917 32.3141 75.4733 33.3641 75.5542 34.4416C75.6 35.0558 75.4458 35.6799 75.6392 36.2874C75.6808 36.4174 75.6842 36.5616 75.7333 36.6874C75.86 37.0283 76.1758 37.2458 76.545 37.1999C76.8467 37.1616 77.1417 37.0633 77.4758 36.9824C77.6517 37.5233 77.5 38.0708 77.5042 38.6108C77.5042 38.7024 77.43 38.8008 77.3742 38.8849C77.2017 39.1516 76.8433 39.4566 76.3592 39.7549C76.2392 39.4291 76.1375 39.0991 76.0008 38.7866C75.8183 38.3724 75.5825 37.9824 75.1783 37.7474C75.01 37.6491 74.7992 37.5966 74.6025 37.5724C74.5883 37.5683 74.575 37.5683 74.5608 37.5683C74.3108 37.1049 73.9808 36.6808 73.5908 36.3333C73.6683 36.2874 73.7383 36.2208 73.8092 36.1333C73.7142 36.0449 73.6333 35.9291 73.5242 35.8874C72.4917 35.4874 71.8175 35.6099 71.115 36.4416C70.6967 36.9366 70.3525 37.5058 70.0508 38.0808C69.2925 39.5308 68.955 41.1174 68.635 42.7074C68.4283 43.7283 68.3858 44.7566 68.4175 45.7958C68.425 45.9991 68.4175 46.2033 68.4175 46.3858C68.2983 46.4766 68.2283 46.5608 68.1367 46.5958C67.0408 47.0458 66.0892 47.7333 65.1375 48.4174C61.1333 51.2924 57.1325 54.1774 53.1292 57.0558C52.9633 57.1749 52.785 57.2699 52.5875 57.3924C52.4683 57.0591 52.3908 56.7574 52.2542 56.4874C52.0858 56.1533 51.8783 55.8341 51.6608 55.5291C51.5658 55.3958 51.4042 55.3008 51.2533 55.2166C51.155 55.1641 51.0533 55.1499 50.955 55.1641C50.7583 54.9424 50.54 54.7424 50.2983 54.5674C50.3158 54.5391 50.3333 54.5108 50.3367 54.4833C50.3575 54.3983 50.3258 54.2516 50.2667 54.2091C49.9225 53.9841 49.5775 53.7491 49.2058 53.5841C48.8758 53.4366 48.5275 53.5524 48.205 53.6899C47.4283 54.0199 46.7783 54.5358 46.2375 55.1708C45.8833 55.5883 45.56 56.0449 45.2858 56.5183C44.2992 58.2283 43.835 60.0816 43.8075 62.0466C43.8042 62.3874 43.8075 62.7241 43.8075 63.0999C42.9925 63.1908 42.3533 63.5808 41.7242 64.0016C41.0958 64.4233 40.4533 64.8233 39.7717 65.2616C39.7192 65.1183 39.6558 65.0341 39.6667 64.9599C39.8383 63.5599 39.9792 62.1524 40.2075 60.7583C40.4283 59.3999 40.7375 58.0558 40.9975 56.7049C41.0575 56.3991 41.2183 56.0866 41.0708 55.7674C41.1658 55.3991 41.3175 55.0658 41.605 54.7883C41.6225 54.8374 41.6617 54.8866 41.7283 54.9391C41.8225 54.9008 41.9567 54.8691 42.0617 54.7949C42.8025 54.2899 43.54 53.7841 44.2708 53.2649C45.925 52.0858 47.5725 50.8924 49.2267 49.7133C50.8808 48.5333 52.5492 47.3716 54.1967 46.1816C54.7267 45.7991 55.2467 45.3891 55.6958 44.9216C56.62 43.9674 57.1892 42.8616 56.9467 41.4716C56.9358 41.4083 56.9608 41.3349 56.9783 41.1666C57.1783 41.0049 57.3608 40.8433 57.5542 40.7066C59.275 39.5024 60.9892 38.2808 62.7275 37.1049C66.18 34.7716 69.6542 32.4691 73.11 30.1383C73.995 29.5416 74.845 28.8924 75.6983 28.2499C75.9342 28.0741 76.2292 27.9091 76.2217 27.5199C76.18 27.5091 76.1375 27.4916 76.095 27.4774C76.5767 27.0774 77.0925 26.7158 77.6158 26.3541C77.63 26.4033 77.6475 26.4524 77.6583 26.5058C77.8658 27.3024 77.96 28.1266 78.0975 28.9374C78.1075 28.9941 78.0517 29.0641 78.0058 29.1799C77.6442 29.3516 77.2333 29.5274 76.84 29.7308C76.2217 30.0541 75.8217 30.4891 75.7692 31.2508ZM10.23 57.1574C10.5675 57.2208 10.8975 57.3224 11.2242 57.4241C13.7533 58.2174 16.2783 59.0283 18.8108 59.8108C20.0925 60.2074 21.3925 60.5549 22.685 60.9166C22.9442 60.9899 23.2117 61.0391 23.545 61.1166C23.3975 59.8566 23.9417 58.7408 24.1 57.5049C23.8608 57.4274 23.6467 57.3258 23.4183 57.2841C19.5092 56.5816 15.7092 55.4866 11.9792 54.1316C11.5925 53.9916 11.2033 53.8583 10.75 53.6966C10.645 54.0333 10.5392 54.3458 10.455 54.6616C10.3108 55.2024 10.0933 55.7008 9.72416 56.1291C9.59416 56.2799 9.45082 56.4066 9.23999 56.4066C9.25749 56.4591 9.27499 56.5149 9.28916 56.5674C9.33416 56.7399 9.33082 56.8766 9.28166 56.9783C9.51749 57.0624 9.74582 57.1608 9.97749 57.2624C10.065 57.2099 10.1525 57.1433 10.23 57.1574ZM11.8283 55.5008C11.8775 55.4308 11.9758 55.3358 12.0425 55.3424C12.3125 55.3783 12.5833 55.4308 12.8433 55.5149C15.685 56.4308 18.5258 57.3541 21.3675 58.2808C21.6483 58.3716 21.9683 58.4066 22.2067 58.7474C21.8767 58.9616 21.6025 58.8841 21.3392 58.8174C18.4383 58.0983 15.5725 57.2591 12.7833 56.1716C12.4675 56.0483 12.1792 55.8549 11.8883 55.6799C11.8458 55.6549 11.8075 55.5324 11.8283 55.5008ZM48.3308 57.9791C48.5175 58.2208 48.675 58.3366 48.6967 58.4699C48.8267 59.3616 48.7142 60.2424 48.4542 61.0991C48.3592 61.4116 48.2117 61.7483 47.8042 61.8049C47.495 61.5941 47.5058 61.2708 47.5267 60.9691C47.59 59.9833 47.7233 59.0108 48.3308 57.9791ZM33.495 18.0499C33.7375 17.5449 33.8783 16.9933 34.4192 16.5374C34.4783 17.1724 34.5275 17.6991 34.5808 18.2674C34.1525 18.3833 33.815 18.3866 33.495 18.0499ZM72.5025 41.1274C72.6533 41.9774 72.5483 42.7666 72.2983 43.5424C72.2775 43.6124 72.1442 43.6441 72.0567 43.6966C71.7258 42.5741 71.8667 41.6966 72.5025 41.1274Z" fill="#4EACB7"/>
</svg>
