<svg width="80" height="80" viewBox="0 0 80 80" fill="none" xmlns="http://www.w3.org/2000/svg">
<path d="M39.1625 41.25L40 48.75H32.5L33.3375 41.25H39.1625Z" fill="#965A53"/>
<path d="M48.75 48.75V55H20V52.5C19.9993 52.0074 20.0959 51.5194 20.2841 51.0642C20.4723 50.6089 20.7485 50.1952 21.0969 49.8469C21.4452 49.4985 21.8589 49.2223 22.3142 49.0341C22.7694 48.8459 23.2574 48.7493 23.75 48.75H48.75Z" fill="#E0786C"/>
<path d="M38.3375 33.75L39.1625 41.25H33.3375L34.1625 33.75H38.3375Z" fill="#844D47"/>
<path d="M36.25 26.2375H37.5L38.3375 33.75H34.1625L35 26.2375H36.2375H36.25Z" fill="#965A53"/>
<path d="M70.175 44.9C70.53 44.9607 70.8898 44.99 71.25 44.9876H73.75C74.4066 44.9877 75.0569 44.8585 75.6636 44.6073C76.2703 44.3561 76.8216 43.9878 77.2859 43.5235C77.7502 43.0592 78.1185 42.5079 78.3697 41.9012C78.6209 41.2945 78.7502 40.6442 78.75 39.9875V63.75C78.751 65.556 78.396 67.3445 77.7054 69.0132C77.0148 70.6818 76.002 72.198 74.725 73.4751C73.448 74.7521 71.9318 75.7648 70.2631 76.4555C68.5944 77.1461 66.8059 77.5011 65 77.5001C64.6688 77.501 64.3514 77.633 64.1172 77.8672C63.883 78.1014 63.7509 78.4188 63.75 78.7501C63.749 78.4188 63.617 78.1014 63.3828 77.8672C63.1486 77.633 62.8312 77.501 62.5 77.5001C59.7051 77.5015 56.9763 76.6502 54.678 75.0599C52.3797 73.4697 50.6212 71.216 49.6375 68.6C49.0471 67.0514 48.7462 65.4074 48.75 63.75V39.9875C48.7487 40.6445 48.8772 41.2952 49.1281 41.9024C49.3789 42.5096 49.7472 43.0613 50.2117 43.5258C50.6762 43.9904 51.2279 44.3586 51.8351 44.6095C52.4423 44.8603 53.093 44.9888 53.75 44.9876H56.25C57.235 44.9878 58.2104 44.794 59.1204 44.4172C60.0305 44.0404 60.8574 43.4879 61.5539 42.7915C62.2504 42.095 62.8028 41.2681 63.1796 40.358C63.5564 39.4479 63.7502 38.4725 63.75 37.4875C63.7465 39.2903 64.3949 41.0336 65.5757 42.3958C66.7565 43.7581 68.39 44.6475 70.175 44.9Z" fill="#FF6654"/>
<path d="M49.6375 68.6H49.625C42.0151 71.7427 33.5408 72.102 25.6921 69.6146C17.8435 67.1272 11.1231 61.9523 6.71252 55H48.75V63.75C48.7463 65.4074 49.0471 67.0513 49.6375 68.6Z" fill="#5DBCEC"/>
<path d="M20 52.5V55H6.71252C3.80217 50.4157 1.99857 45.2171 1.44443 39.8154C0.890279 34.4137 1.60079 28.9571 3.51974 23.8774C5.4387 18.7977 8.51344 14.2343 12.5007 10.5482C16.488 6.8621 21.2783 4.15446 26.4928 2.63951C31.7072 1.12456 37.2027 0.843874 42.5443 1.81966C47.886 2.79544 52.9273 5.00092 57.2694 8.2616C61.6115 11.5223 65.1351 15.7487 67.5617 20.6064C69.9882 25.4641 71.2509 30.8199 71.25 36.25C71.2508 39.1667 70.8897 42.0722 70.175 44.9C68.39 44.6474 66.7565 43.758 65.5758 42.3958C64.395 41.0335 63.7465 39.2902 63.75 37.4875C63.7503 38.4725 63.5565 39.4479 63.1797 40.3579C62.8029 41.268 62.2504 42.0949 61.5539 42.7914C60.8574 43.4879 60.0305 44.0403 59.1205 44.4171C58.2104 44.7939 57.235 44.9878 56.25 44.9875H53.75C53.0931 44.9887 52.4423 44.8602 51.8352 44.6094C51.228 44.3585 50.6763 43.9903 50.2118 43.5258C49.7472 43.0612 49.379 42.5095 49.1281 41.9024C48.8773 41.2952 48.7488 40.6444 48.75 39.9875V48.75H40L39.1625 41.25L38.3375 33.75L37.5 26.2375H36.25C36.25 26.0625 36.2625 25.9 36.275 25.725C36.2726 25.6414 36.2768 25.5579 36.2875 25.475C36.2623 25.7284 36.2497 25.9828 36.25 26.2375H36.2375C36.2378 25.9828 36.2253 25.7284 36.2 25.475C36.2107 25.5579 36.2149 25.6414 36.2125 25.725C36.225 25.9 36.2375 26.0625 36.2375 26.2375H35L34.1625 33.75L33.3375 41.25L32.5 48.75H23.75C23.2574 48.7493 22.7695 48.8459 22.3142 49.0341C21.8589 49.2223 21.4453 49.4985 21.0969 49.8469C20.7486 50.1952 20.4724 50.6089 20.2841 51.0641C20.0959 51.5194 19.9994 52.0073 20 52.5Z" fill="#FDFCDF"/>
<path d="M65 77.5001C66.806 77.5011 68.5944 77.1461 70.2631 76.4555C71.9318 75.7648 73.448 74.7521 74.725 73.475C76.002 72.198 77.0148 70.6818 77.7054 69.0132C78.3961 67.3445 78.751 65.556 78.75 63.75V39.9875C78.7502 40.6442 78.621 41.2945 78.3698 41.9012C78.1186 42.5079 77.7503 43.0592 77.286 43.5235C76.8216 43.9878 76.2704 44.3561 75.6637 44.6073C75.0569 44.8585 74.4067 44.9877 73.75 44.9876H71.25C70.8898 44.99 70.5301 44.9607 70.175 44.9C68.39 44.6475 66.7565 43.7581 65.5757 42.3958C64.3949 41.0336 63.7465 39.2903 63.75 37.4875V78.7501C63.751 78.4188 63.883 78.1015 64.1172 77.8673C64.3514 77.633 64.6688 77.501 65 77.5001Z" fill="#E0786C"/>
<path d="M56.2402 27.4928C56.0761 27.4929 55.9135 27.4606 55.7618 27.3978C55.6101 27.335 55.4722 27.243 55.3561 27.1269C55.24 27.0108 55.148 26.873 55.0852 26.7213C55.0224 26.5696 54.9901 26.407 54.9902 26.2428C54.9875 23.9253 54.0649 21.7036 52.4252 20.0658C50.7854 18.428 48.5627 17.5081 46.2451 17.5081C43.9276 17.5081 41.7048 18.428 40.0651 20.0658C38.4254 21.7036 37.5028 23.9253 37.5 26.2428C37.5 26.5743 37.3683 26.8923 37.1339 27.1267C36.8995 27.3611 36.5815 27.4928 36.25 27.4928C35.9185 27.4928 35.6005 27.3611 35.3661 27.1267C35.1317 26.8923 35 26.5743 35 26.2428C35.0031 23.2625 36.1893 20.4053 38.2978 18.299C40.4063 16.1926 43.2648 15.0095 46.2451 15.0095C49.2255 15.0095 52.0839 16.1926 54.1924 18.299C56.301 20.4053 57.4871 23.2625 57.4902 26.2428C57.4903 26.407 57.4581 26.5696 57.3953 26.7213C57.3325 26.873 57.2404 27.0108 57.1243 27.1269C57.0082 27.243 56.8704 27.335 56.7187 27.3978C56.567 27.4606 56.4044 27.4929 56.2402 27.4928Z" fill="#D47368"/>
<path d="M51.25 27.4927C51.0858 27.4928 50.9232 27.4605 50.7715 27.3977C50.6198 27.3349 50.482 27.2429 50.3659 27.1268C50.2498 27.0107 50.1577 26.8728 50.095 26.7211C50.0322 26.5694 49.9999 26.4069 50 26.2427C50 24.5851 49.3415 22.9954 48.1694 21.8233C46.9973 20.6512 45.4076 19.9927 43.75 19.9927C42.0924 19.9927 40.5027 20.6512 39.3306 21.8233C38.1585 22.9954 37.5 24.5851 37.5 26.2427C37.5 26.5742 37.3683 26.8921 37.1339 27.1266C36.8995 27.361 36.5815 27.4927 36.25 27.4927C35.9185 27.4927 35.6005 27.361 35.3661 27.1266C35.1317 26.8921 35 26.5742 35 26.2427C35 23.922 35.9219 21.6964 37.5628 20.0555C39.2038 18.4145 41.4294 17.4927 43.75 17.4927C46.0706 17.4927 48.2962 18.4145 49.9372 20.0555C51.5781 21.6964 52.5 23.922 52.5 26.2427C52.5001 26.4069 52.4678 26.5694 52.405 26.7211C52.3423 26.8728 52.2502 27.0107 52.1341 27.1268C52.018 27.2429 51.8802 27.3349 51.7285 27.3977C51.5768 27.4605 51.4142 27.4928 51.25 27.4927Z" fill="#D47368"/>
<path d="M46.2451 27.4927C46.0809 27.4928 45.9183 27.4605 45.7666 27.3977C45.6149 27.3349 45.4771 27.2429 45.361 27.1268C45.2449 27.0107 45.1529 26.8728 45.0901 26.7211C45.0273 26.5694 44.995 26.4069 44.9951 26.2427C44.9951 25.7505 44.8982 25.2632 44.7098 24.8085C44.5215 24.3539 44.2455 23.9407 43.8975 23.5928C43.5495 23.2448 43.1364 22.9687 42.6817 22.7804C42.227 22.5921 41.7397 22.4951 41.2476 22.4951C40.7554 22.4951 40.2681 22.5921 39.8134 22.7804C39.3588 22.9687 38.9456 23.2448 38.5976 23.5928C38.2496 23.9407 37.9736 24.3539 37.7853 24.8085C37.5969 25.2632 37.5 25.7505 37.5 26.2427C37.5 26.5742 37.3683 26.8921 37.1339 27.1266C36.8995 27.361 36.5815 27.4927 36.25 27.4927C35.9185 27.4927 35.6005 27.361 35.3661 27.1266C35.1317 26.8921 35 26.5742 35 26.2427C35 24.5857 35.6582 22.9966 36.8299 21.825C38.0015 20.6533 39.5906 19.9951 41.2476 19.9951C42.9045 19.9951 44.4936 20.6533 45.6652 21.825C46.8369 22.9966 47.4951 24.5857 47.4951 26.2427C47.4952 26.4069 47.4629 26.5694 47.4002 26.7211C47.3374 26.8728 47.2453 27.0107 47.1292 27.1268C47.0131 27.2429 46.8753 27.3349 46.7236 27.3977C46.5719 27.4605 46.4093 27.4928 46.2451 27.4927Z" fill="#D47368"/>
<path d="M36.2402 27.4928C36.0761 27.4929 35.9135 27.4606 35.7618 27.3978C35.6101 27.335 35.4722 27.243 35.3561 27.1269C35.24 27.0108 35.148 26.873 35.0852 26.7213C35.0224 26.5696 34.9901 26.407 34.9902 26.2428C34.9875 23.9253 34.0649 21.7036 32.4252 20.0658C30.7854 18.428 28.5627 17.5081 26.2451 17.5081C23.9276 17.5081 21.7048 18.428 20.0651 20.0658C18.4254 21.7036 17.5028 23.9253 17.5 26.2428C17.5 26.5743 17.3683 26.8923 17.1339 27.1267C16.8995 27.3611 16.5815 27.4928 16.25 27.4928C15.9185 27.4928 15.6005 27.3611 15.3661 27.1267C15.1317 26.8923 15 26.5743 15 26.2428C15.0031 23.2625 16.1893 20.4053 18.2978 18.299C20.4063 16.1926 23.2648 15.0095 26.2451 15.0095C29.2255 15.0095 32.0839 16.1926 34.1924 18.299C36.301 20.4053 37.4871 23.2625 37.4902 26.2428C37.4903 26.407 37.4581 26.5696 37.3953 26.7213C37.3325 26.873 37.2404 27.0108 37.1243 27.1269C37.0082 27.243 36.8704 27.335 36.7187 27.3978C36.567 27.4606 36.4044 27.4929 36.2402 27.4928Z" fill="#D47368"/>
<path d="M36.2402 27.4927C36.0761 27.4928 35.9135 27.4605 35.7618 27.3977C35.6101 27.3349 35.4722 27.2429 35.3561 27.1268C35.24 27.0107 35.148 26.8728 35.0852 26.7211C35.0224 26.5694 34.9901 26.4069 34.9902 26.2427C34.9902 24.5851 34.3318 22.9954 33.1597 21.8233C31.9875 20.6512 30.3978 19.9927 28.7402 19.9927C27.0826 19.9927 25.4929 20.6512 24.3208 21.8233C23.1487 22.9954 22.4902 24.5851 22.4902 26.2427C22.4902 26.5742 22.3585 26.8921 22.1241 27.1266C21.8897 27.361 21.5718 27.4927 21.2402 27.4927C20.9087 27.4927 20.5908 27.361 20.3564 27.1266C20.1219 26.8921 19.9902 26.5742 19.9902 26.2427C19.9902 25.0936 20.2166 23.9558 20.6563 22.8942C21.096 21.8326 21.7405 20.868 22.553 20.0555C23.3656 19.243 24.3302 18.5985 25.3918 18.1587C26.4534 17.719 27.5912 17.4927 28.7402 17.4927C29.8893 17.4927 31.0271 17.719 32.0887 18.1587C33.1503 18.5985 34.1149 19.243 34.9274 20.0555C35.7399 20.868 36.3845 21.8326 36.8242 22.8942C37.2639 23.9558 37.4902 25.0936 37.4902 26.2427C37.4903 26.4069 37.4581 26.5694 37.3953 26.7211C37.3325 26.8728 37.2404 27.0107 37.1243 27.1268C37.0082 27.2429 36.8704 27.3349 36.7187 27.3977C36.567 27.4605 36.4044 27.4928 36.2402 27.4927Z" fill="#D47368"/>
<path d="M36.2402 27.4927C36.0761 27.4928 35.9135 27.4605 35.7618 27.3977C35.6101 27.3349 35.4722 27.2429 35.3561 27.1268C35.2401 27.0107 35.148 26.8728 35.0852 26.7211C35.0224 26.5694 34.9901 26.4069 34.9902 26.2427C34.9902 25.7505 34.8933 25.2632 34.705 24.8085C34.5166 24.3539 34.2406 23.9407 33.8926 23.5928C33.5446 23.2448 33.1315 22.9687 32.6768 22.7804C32.2221 22.5921 31.7348 22.4951 31.2427 22.4951C30.7505 22.4951 30.2632 22.5921 29.8085 22.7804C29.3539 22.9687 28.9407 23.2448 28.5928 23.5928C28.2448 23.9407 27.9687 24.3539 27.7804 24.8085C27.5921 25.2632 27.4951 25.7505 27.4951 26.2427C27.4951 26.5742 27.3634 26.8921 27.129 27.1266C26.8946 27.361 26.5766 27.4927 26.2451 27.4927C25.9136 27.4927 25.5957 27.361 25.3612 27.1266C25.1268 26.8921 24.9951 26.5742 24.9951 26.2427C24.9951 24.5857 25.6533 22.9966 26.825 21.825C27.9966 20.6533 29.5857 19.9951 31.2427 19.9951C32.8996 19.9951 34.4887 20.6533 35.6604 21.825C36.832 22.9966 37.4902 24.5857 37.4902 26.2427C37.4903 26.4069 37.4581 26.5694 37.3953 26.7211C37.3325 26.8728 37.2404 27.0107 37.1243 27.1268C37.0082 27.2429 36.8704 27.3349 36.7187 27.3977C36.567 27.4605 36.4044 27.4928 36.2402 27.4927Z" fill="#D47368"/>
<path d="M31.25 61.2476H21.25C20.9185 61.2476 20.6005 61.1159 20.3661 60.8814C20.1317 60.647 20 60.3291 20 59.9976C20 59.666 20.1317 59.3481 20.3661 59.1137C20.6005 58.8793 20.9185 58.7476 21.25 58.7476H31.25C31.5815 58.7476 31.8995 58.8793 32.1339 59.1137C32.3683 59.3481 32.5 59.666 32.5 59.9976C32.5 60.3291 32.3683 60.647 32.1339 60.8814C31.8995 61.1159 31.5815 61.2476 31.25 61.2476ZM42.5 66.25H33.75C33.4185 66.25 33.1005 66.1183 32.8661 65.8839C32.6317 65.6495 32.5 65.3315 32.5 65C32.5 64.6685 32.6317 64.3505 32.8661 64.1161C33.1005 63.8817 33.4185 63.75 33.75 63.75H42.5C42.8315 63.75 43.1495 63.8817 43.3839 64.1161C43.6183 64.3505 43.75 64.6685 43.75 65C43.75 65.3315 43.6183 65.6495 43.3839 65.8839C43.1495 66.1183 42.8315 66.25 42.5 66.25Z" fill="#7BB7D5"/>
</svg>
