<svg width="80" height="80" viewBox="0 0 80 80" fill="none" xmlns="http://www.w3.org/2000/svg">
<path d="M38.8725 66.8398C52.6796 66.8398 63.8725 55.647 63.8725 41.8398C63.8725 28.0327 52.6796 16.8398 38.8725 16.8398C25.0654 16.8398 13.8725 28.0327 13.8725 41.8398C13.8725 55.647 25.0654 66.8398 38.8725 66.8398Z" fill="#7BB7D5"/>
<path d="M49.935 22.1124L20.0775 7.5L15.3125 12.265L41.1275 30.9177L49.935 22.1124ZM57.875 30.0525L49.0701 38.8602L67.7225 64.675L72.4875 59.91L57.875 30.0525Z" fill="#E0786C"/>
<path d="M27.09 61.8324L28.1825 63.7175L30.365 67.4898L32.55 71.2624L30.1675 73.6449L27.785 76.0274L17.46 62.5273L3.96002 52.2023L6.34497 49.8198L8.72748 47.4373L12.5 49.6224L16.27 51.805L18.1575 52.8975L18.8075 53.2375L59.0825 12.9674C61.2825 10.7674 64.8225 10.7674 67.0225 12.9674C69.2225 15.1674 69.2225 18.7074 67.0225 20.9074L26.75 61.1775L27.09 61.8324Z" fill="#FDFCDF"/>
<path d="M22.2375 57.75L15.885 64.105" stroke="#E5E172" stroke-linecap="round" stroke-linejoin="round"/>
<path d="M20.1675 20.1174L16.9901 23.2925M24.93 24.88L18.5775 31.235M59.8725 59.8226L56.695 62.9974M55.1075 55.0576L48.7525 61.4099" stroke="#E5E172"/>
</svg>
