<svg width="56" height="55" viewBox="0 0 56 55" fill="none" xmlns="http://www.w3.org/2000/svg">
<path d="M30.3987 4.55358C32.1014 4.54721 33.8041 4.5639 35.5064 4.60364L35.959 4.61957C36.4817 4.63778 36.9974 4.66053 37.6204 4.68784C40.103 4.80162 41.797 5.18392 43.2834 5.74599C44.8234 6.32399 46.1207 7.1068 47.418 8.37203C48.6042 9.50893 49.5223 10.8842 50.1084 12.4021C50.6847 13.8517 51.0767 15.506 51.1934 17.9273C51.2214 18.5326 51.2447 19.0377 51.2634 19.5475L51.2774 19.9889C51.3188 21.6483 51.3367 23.3081 51.331 24.9679L51.3334 26.6655V29.6466C51.3391 31.3072 51.3212 32.9677 51.2797 34.6278L51.2657 35.0693C51.247 35.579 51.2237 36.0819 51.1957 36.6895C51.079 39.1108 50.6824 40.7628 50.1084 42.2124C49.5242 43.732 48.6059 45.1083 47.418 46.2448C46.2513 47.4015 44.8404 48.2968 43.2834 48.8685C41.797 49.4306 40.103 49.8129 37.6204 49.9267C36.9974 49.954 36.4817 49.9767 35.959 49.9949L35.5064 50.0086C33.8041 50.049 32.1014 50.0665 30.3987 50.0609L28.658 50.0632H25.6037C23.901 50.0688 22.1982 50.0514 20.496 50.0109L20.0434 49.9972C19.4894 49.9776 18.9357 49.9549 18.382 49.9289C15.8994 49.8152 14.2054 49.4283 12.7167 48.8685C11.1596 48.2981 9.74924 47.4026 8.58436 46.2448C7.3968 45.1076 6.47788 43.7315 5.89169 42.2124C5.31536 40.7628 4.92336 39.1108 4.80669 36.6895C4.7807 36.1496 4.75737 35.6095 4.73669 35.0693L4.72502 34.6278C4.68201 32.9678 4.66256 31.3072 4.66669 29.6466V24.9679C4.66018 23.3081 4.67729 21.6483 4.71802 19.9889L4.73436 19.5475C4.75302 19.0377 4.77636 18.5326 4.80436 17.9273C4.92102 15.5037 5.31302 13.8539 5.88936 12.4021C6.47589 10.8834 7.39661 9.50856 8.58669 8.3743C9.75078 7.21546 11.1603 6.31847 12.7167 5.74599C14.2054 5.18392 15.897 4.80162 18.382 4.68784L20.0434 4.61957L20.496 4.6082C22.1975 4.56626 23.8994 4.5473 25.6014 4.55131L30.3987 4.55358ZM28 15.9316C26.4542 15.9102 24.9195 16.1888 23.485 16.7509C22.0505 17.3131 20.7449 18.1477 19.644 19.2063C18.5431 20.2648 17.669 21.5262 17.0723 22.9171C16.4756 24.308 16.1684 25.8007 16.1684 27.3084C16.1684 28.8161 16.4756 30.3088 17.0723 31.6997C17.669 33.0906 18.5431 34.352 19.644 35.4105C20.7449 36.4691 22.0505 37.3037 23.485 37.8659C24.9195 38.428 26.4542 38.7065 28 38.6852C31.0942 38.6852 34.0617 37.4865 36.2496 35.3527C38.4375 33.2189 39.6667 30.3249 39.6667 27.3073C39.6667 24.2896 38.4375 21.3956 36.2496 19.2618C34.0617 17.128 31.0942 15.9316 28 15.9316ZM28 20.4827C28.9299 20.466 29.8538 20.6302 30.7179 20.9656C31.5819 21.3011 32.3688 21.8011 33.0325 22.4364C33.6962 23.0718 34.2234 23.8298 34.5834 24.6661C34.9434 25.5024 35.1288 26.4002 35.129 27.3072C35.1291 28.2142 34.944 29.1122 34.5843 29.9486C34.2246 30.785 33.6977 31.5431 33.0342 32.1787C32.3707 32.8143 31.584 33.3145 30.72 33.6503C29.8561 33.986 28.9322 34.1504 28.0024 34.134C26.1458 34.134 24.3654 33.4148 23.0526 32.1345C21.7399 30.8542 21.0024 29.1178 21.0024 27.3073C21.0024 25.4967 21.7399 23.7603 23.0526 22.48C24.3654 21.1997 26.1458 20.4805 28.0024 20.4805L28 20.4827ZM40.25 12.5182C39.4973 12.5475 38.7854 12.8598 38.2634 13.3897C37.7415 13.9195 37.45 14.6257 37.45 15.3604C37.45 16.0951 37.7415 16.8013 38.2634 17.3311C38.7854 17.8609 39.4973 18.1732 40.25 18.2026C41.0236 18.2026 41.7654 17.9029 42.3124 17.3695C42.8594 16.836 43.1667 16.1125 43.1667 15.3581C43.1667 14.6037 42.8594 13.8802 42.3124 13.3467C41.7654 12.8133 41.0236 12.5136 40.25 12.5136V12.5182Z" fill="#FDFCDF"/>
</svg>
