<svg width="80" height="80" viewBox="0 0 80 80" fill="none" xmlns="http://www.w3.org/2000/svg">
<g clip-path="url(#clip0_159_644)">
<path d="M78.3334 43.75C78.3334 49.8834 78.4667 50.55 78.0333 51.6667C77.6895 52.6393 77.0532 53.4817 76.2118 54.0785C75.3704 54.6752 74.3649 54.9971 73.3334 55H1.66669V18.3334H51.0834C53.3802 18.325 55.654 18.7915 57.7621 19.7035C59.8701 20.6156 61.7669 21.9535 63.3334 23.6334C76.05 37.3667 78.3334 38.6 78.3334 43.75Z" fill="#E5E5D7"/>
<path d="M78.3334 43.75C78.3334 49.8834 78.4667 50.55 78.0334 51.6667H40C35.6226 51.6667 31.2881 50.8045 27.2439 49.1293C23.1997 47.4542 19.5251 44.9989 16.4298 41.9036C10.1786 35.6524 6.66669 27.1739 6.66669 18.3334C6.66669 18.1667 4.86669 18.3334 51.0834 18.3334C53.3802 18.325 55.654 18.7915 57.7621 19.7035C59.8701 20.6156 61.7669 21.9535 63.3334 23.6334C76.0834 37.4 78.3334 38.6167 78.3334 43.75Z" fill="#FDFCDF"/>
<path d="M61.6667 61.6667C60.868 61.6644 60.0814 61.4709 59.3729 61.1022C58.6643 60.7335 58.0544 60.2005 57.5942 59.5477C57.134 58.8949 56.8368 58.1413 56.7277 57.3501C56.6185 56.5589 56.7004 55.753 56.9667 55H66.3667C66.6329 55.753 66.7149 56.5589 66.6057 57.3501C66.4965 58.1413 66.1994 58.8949 65.7392 59.5477C65.279 60.2005 64.669 60.7335 63.9605 61.1022C63.252 61.4709 62.4654 61.6644 61.6667 61.6667Z" fill="#375868"/>
<path d="M51.6667 61.6667C50.868 61.6644 50.0814 61.4709 49.3729 61.1022C48.6643 60.7335 48.0544 60.2005 47.5942 59.5477C47.134 58.8949 46.8368 58.1413 46.7277 57.3501C46.6185 56.5589 46.7004 55.753 46.9667 55H56.3667C56.6329 55.753 56.7149 56.5589 56.6057 57.3501C56.4965 58.1413 56.1994 58.8949 55.7392 59.5477C55.279 60.2005 54.669 60.7335 53.9605 61.1022C53.252 61.4709 52.4654 61.6644 51.6667 61.6667Z" fill="#375868"/>
<path d="M65.4 60C64.7106 60.0553 64.0171 59.967 63.3636 59.7407C62.71 59.5143 62.1105 59.1548 61.603 58.6848C61.0954 58.2149 60.6909 57.6448 60.415 57.0105C60.1391 56.3763 59.9978 55.6917 60 55H66.3667C66.6811 55.8417 66.7573 56.7538 66.5867 57.636C66.4162 58.5182 66.0055 59.3362 65.4 60ZM55.4 60C54.7106 60.0553 54.0171 59.967 53.3636 59.7407C52.71 59.5143 52.1105 59.1548 51.603 58.6848C51.0954 58.2149 50.6909 57.6448 50.415 57.0105C50.1391 56.3763 49.9978 55.6917 50 55H56.3667C56.6811 55.8417 56.7573 56.7538 56.5867 57.636C56.4162 58.5182 56.0055 59.3362 55.4 60Z" fill="#426272"/>
<path d="M25 61.6667C24.2013 61.6644 23.4147 61.4709 22.7062 61.1022C21.9976 60.7335 21.3877 60.2005 20.9275 59.5477C20.4673 58.8949 20.1701 58.1413 20.061 57.3501C19.9518 56.5589 20.0338 55.753 20.3 55H29.7C29.9662 55.753 30.0482 56.5589 29.939 57.3501C29.8299 58.1413 29.5327 58.8949 29.0725 59.5477C28.6123 60.2005 28.0024 60.7335 27.2938 61.1022C26.5853 61.4709 25.7987 61.6644 25 61.6667Z" fill="#375868"/>
<path d="M28.7333 60C28.0439 60.0553 27.3504 59.967 26.6969 59.7407C26.0433 59.5143 25.4438 59.1548 24.9363 58.6848C24.4288 58.2149 24.0243 57.6448 23.7483 57.0105C23.4724 56.3763 23.3311 55.6917 23.3333 55H29.7C30.0145 55.8417 30.0906 56.7538 29.92 57.636C29.7495 58.5182 29.3389 59.3362 28.7333 60Z" fill="#426272"/>
<path d="M15 61.6667C14.2013 61.6644 13.4147 61.4709 12.7062 61.1022C11.9976 60.7335 11.3877 60.2005 10.9275 59.5477C10.4673 58.8949 10.1701 58.1413 10.061 57.3501C9.95179 56.5589 10.0338 55.753 10.3 55H19.7C19.9662 55.753 20.0482 56.5589 19.939 57.3501C19.8299 58.1413 19.5327 58.8949 19.0725 59.5477C18.6123 60.2005 18.0024 60.7335 17.2938 61.1022C16.5853 61.4709 15.7987 61.6644 15 61.6667Z" fill="#375868"/>
<path d="M18.7333 60C18.0439 60.0553 17.3504 59.967 16.6969 59.7407C16.0433 59.5143 15.4438 59.1548 14.9363 58.6848C14.4288 58.2149 14.0243 57.6448 13.7483 57.0105C13.4724 56.3763 13.3311 55.6917 13.3333 55H19.7C20.0145 55.8417 20.0906 56.7538 19.92 57.636C19.7495 58.5182 19.3389 59.3362 18.7333 60Z" fill="#426272"/>
<path d="M73.85 35.0002H51.6666C50.7826 35.0002 49.9347 34.649 49.3096 34.0239C48.6845 33.3987 48.3333 32.5509 48.3333 31.6668V18.3335H51.0833C53.3793 18.3311 55.6512 18.8003 57.7584 19.712C59.8656 20.6237 61.7631 21.9584 63.3333 23.6335L73.85 35.0002Z" fill="#7BB7D5"/>
<path d="M70.75 31.6668H65C61.4638 31.6668 58.0724 30.2621 55.5719 27.7616C53.0714 25.2611 51.6667 21.8697 51.6667 18.3335C60.1334 18.6335 63.4667 23.8335 70.75 31.6668Z" fill="#B2E3FB"/>
<path d="M36.6667 18.3335H30C28.1591 18.3335 26.6667 19.8259 26.6667 21.6668V31.6668C26.6667 33.5078 28.1591 35.0002 30 35.0002H36.6667C38.5076 35.0002 40 33.5078 40 31.6668V21.6668C40 19.8259 38.5076 18.3335 36.6667 18.3335Z" fill="#7BB7D5"/>
<path d="M40 21.6668V31.6668C37.3478 31.6668 34.8043 30.6133 32.9289 28.7379C31.0536 26.8625 30 24.319 30 21.6668V18.3335H36.6667C37.5507 18.3335 38.3986 18.6847 39.0237 19.3098C39.6488 19.9349 40 20.7828 40 21.6668Z" fill="#B2E3FB"/>
<path d="M16.6667 18.3335H10C8.15907 18.3335 6.66669 19.8259 6.66669 21.6668V31.6668C6.66669 33.5078 8.15907 35.0002 10 35.0002H16.6667C18.5076 35.0002 20 33.5078 20 31.6668V21.6668C20 19.8259 18.5076 18.3335 16.6667 18.3335Z" fill="#7BB7D5"/>
<path d="M20 21.6668V31.6668C17.3478 31.6668 14.8043 30.6133 12.9289 28.7379C11.0536 26.8625 10 24.319 10 21.6668V18.3335H16.6667C17.5507 18.3335 18.3986 18.6847 19.0237 19.3098C19.6488 19.9349 20 20.7828 20 21.6668Z" fill="#B2E3FB"/>
<path d="M64.5 22.5001C62.7839 20.6589 60.707 19.1907 58.3988 18.1871C56.0905 17.1835 53.6003 16.666 51.0833 16.6667H1.66667C1.22464 16.6667 0.800716 16.8423 0.488155 17.1549C0.175595 17.4675 0 17.8914 0 18.3334C0 18.7754 0.175595 19.1994 0.488155 19.5119C0.800716 19.8245 1.22464 20.0001 1.66667 20.0001H5.3C4.86667 21.2334 5 20.8667 5 31.6667C5 32.9928 5.52678 34.2646 6.46447 35.2023C7.40215 36.14 8.67392 36.6667 10 36.6667H16.6667C17.9928 36.6667 19.2645 36.14 20.2022 35.2023C21.1399 34.2646 21.6667 32.9928 21.6667 31.6667C21.6667 20.9001 21.7833 21.1667 21.3667 20.0001H25.3C24.8667 21.2334 25 20.8667 25 31.6667C25 32.9928 25.5268 34.2646 26.4645 35.2023C27.4021 36.14 28.6739 36.6667 30 36.6667H36.6667C37.9928 36.6667 39.2645 36.14 40.2022 35.2023C41.1399 34.2646 41.6667 32.9928 41.6667 31.6667C41.6667 20.9001 41.7833 21.1667 41.3667 20.0001H46.6667V31.6667C46.6667 32.9928 47.1935 34.2646 48.1311 35.2023C49.0688 36.14 50.3406 36.6667 51.6667 36.6667H73.1333C74.8 38.4668 76.4667 40.0001 76.6333 43.3334H1.66667C1.22464 43.3334 0.800716 43.509 0.488155 43.8216C0.175595 44.1341 0 44.5581 0 45.0001C0 45.4421 0.175595 45.866 0.488155 46.1786C0.800716 46.4912 1.22464 46.6667 1.66667 46.6667H76.6667V50.0001C76.6667 50.8841 76.3155 51.732 75.6904 52.3571C75.0652 52.9822 74.2174 53.3334 73.3333 53.3334H1.66667C1.22464 53.3334 0.800716 53.509 0.488155 53.8216C0.175595 54.1341 0 54.5581 0 55.0001C0 55.4421 0.175595 55.866 0.488155 56.1786C0.800716 56.4912 1.22464 56.6667 1.66667 56.6667H8.33333C8.33826 57.8417 8.66075 58.9934 9.26667 60.0001H1.66667C1.22464 60.0001 0.800716 60.1757 0.488155 60.4882C0.175595 60.8008 0 61.2247 0 61.6668C0 62.1088 0.175595 62.5327 0.488155 62.8453C0.800716 63.1578 1.22464 63.3334 1.66667 63.3334H78.3333C78.7754 63.3334 79.1993 63.1578 79.5118 62.8453C79.8244 62.5327 80 62.1088 80 61.6668C80 61.2247 79.8244 60.8008 79.5118 60.4882C79.1993 60.1757 78.7754 60.0001 78.3333 60.0001H67.4C68.0059 58.9934 68.3284 57.8417 68.3333 56.6667H73.3333C75.1014 56.6667 76.7971 55.9644 78.0474 54.7141C79.2976 53.4639 80 51.7682 80 50.0001C80 36.9334 81.15 40.4001 64.5 22.5001ZM51.6667 60.0001C50.7826 60.0001 49.9348 59.6489 49.3096 59.0238C48.6845 58.3987 48.3333 57.5508 48.3333 56.6667H55C55 57.5508 54.6488 58.3987 54.0237 59.0238C53.3986 59.6489 52.5507 60.0001 51.6667 60.0001ZM45 56.6667C45.0049 57.8417 45.3274 58.9934 45.9333 60.0001H30.7333C31.3393 58.9934 31.6617 57.8417 31.6667 56.6667H45ZM21.6667 56.6667H28.3333C28.3333 57.5508 27.9821 58.3987 27.357 59.0238C26.7319 59.6489 25.8841 60.0001 25 60.0001C24.1159 60.0001 23.2681 59.6489 22.643 59.0238C22.0179 58.3987 21.6667 57.5508 21.6667 56.6667ZM11.6667 56.6667H18.3333C18.3333 57.5508 17.9821 58.3987 17.357 59.0238C16.7319 59.6489 15.8841 60.0001 15 60.0001C14.1159 60.0001 13.2681 59.6489 12.643 59.0238C12.0179 58.3987 11.6667 57.5508 11.6667 56.6667ZM61.6667 60.0001C60.7826 60.0001 59.9348 59.6489 59.3096 59.0238C58.6845 58.3987 58.3333 57.5508 58.3333 56.6667H65C65 57.5508 64.6488 58.3987 64.0237 59.0238C63.3986 59.6489 62.5507 60.0001 61.6667 60.0001ZM18.3333 21.6667V31.6667C18.3333 32.1088 18.1577 32.5327 17.8452 32.8453C17.5326 33.1578 17.1087 33.3334 16.6667 33.3334H10C9.55797 33.3334 9.13405 33.1578 8.82149 32.8453C8.50893 32.5327 8.33333 32.1088 8.33333 31.6667V21.6667C8.33333 21.2247 8.50893 20.8008 8.82149 20.4882C9.13405 20.1757 9.55797 20.0001 10 20.0001H16.6667C17.1087 20.0001 17.5326 20.1757 17.8452 20.4882C18.1577 20.8008 18.3333 21.2247 18.3333 21.6667ZM38.3333 21.6667V31.6667C38.3333 32.1088 38.1577 32.5327 37.8452 32.8453C37.5326 33.1578 37.1087 33.3334 36.6667 33.3334H30C29.558 33.3334 29.1341 33.1578 28.8215 32.8453C28.5089 32.5327 28.3333 32.1088 28.3333 31.6667V21.6667C28.3333 21.2247 28.5089 20.8008 28.8215 20.4882C29.1341 20.1757 29.558 20.0001 30 20.0001H36.6667C37.1087 20.0001 37.5326 20.1757 37.8452 20.4882C38.1577 20.8008 38.3333 21.2247 38.3333 21.6667ZM51.6667 33.3334C51.2246 33.3334 50.8007 33.1578 50.4882 32.8453C50.1756 32.5327 50 32.1088 50 31.6667V20.0001C59.45 20.0001 61.5667 24.2334 70 33.3334H51.6667Z" fill="#E0786C"/>
</g>
<defs>
<clipPath id="clip0_159_644">
<rect width="80" height="80" fill="white"/>
</clipPath>
</defs>
</svg>
