<svg width="100" height="100" viewBox="0 0 100 100" fill="none" xmlns="http://www.w3.org/2000/svg">
<path d="M43.2631 63.0825H94.7192C95.8142 63.0825 96.6985 63.9631 96.6985 65.0612V94.7378C96.6989 94.9978 96.6481 95.2555 96.5488 95.4957C96.4495 95.736 96.3036 95.9543 96.1197 96.1382C95.9359 96.322 95.7175 96.4676 95.4772 96.5669C95.2368 96.6661 94.9793 96.7174 94.7192 96.7169H43.2631C43.0031 96.7174 42.7453 96.6661 42.505 96.5669C42.2647 96.4676 42.0463 96.322 41.8624 96.1382C41.6785 95.9543 41.5329 95.736 41.4336 95.4957C41.3343 95.2555 41.2832 94.9978 41.2837 94.7378V65.0612C41.2837 63.9631 42.1682 63.0825 43.2631 63.0825Z" fill="#344F5C"/>
<path d="M62.3713 63.9324V57.0054H74.2466V63.9286" stroke="#57717E" stroke-linecap="round" stroke-linejoin="round"/>
<path d="M43.2631 63.0825C43.0031 63.0821 42.7453 63.1333 42.505 63.2326C42.2647 63.3319 42.0463 63.4775 41.8624 63.6613C41.6785 63.8451 41.5329 64.0634 41.4336 64.3037C41.3343 64.544 41.2832 64.8012 41.2837 65.0612V71.6674C41.2837 75.2795 44.3717 78.1835 48.2092 78.1835H89.7729C93.607 78.1835 96.6985 75.2795 96.6985 71.6674V65.0612C96.6989 64.8012 96.6481 64.544 96.5488 64.3037C96.4495 64.0634 96.3036 63.8451 96.1197 63.6613C95.9359 63.4775 95.7175 63.3319 95.4772 63.2326C95.2368 63.1333 94.9793 63.0821 94.7192 63.0825H43.2631Z" fill="#552F2B"/>
<path d="M18.9702 32.9296V6.46417C18.9702 5.76662 19.4536 5.20758 20.0546 5.20758H35.239C35.84 5.20758 36.3237 5.76662 36.3237 6.46417V32.9296" stroke="#344F5C" stroke-linecap="round" stroke-linejoin="round"/>
<path d="M18.2863 11.0121H37.0076" stroke="#344F5C"/>
<path d="M19.692 6.66473H35.6018V9.56529H19.692V6.66473Z" fill="#7BB7D5"/>
<path d="M48.3406 31.1064H6.9083C5.00063 31.1064 3.45416 32.6525 3.45416 34.5596V86.3574C3.45416 88.2645 5.00063 89.8106 6.9083 89.8106H48.3406C50.2483 89.8106 51.7947 88.2645 51.7947 86.3574V34.5596C51.7947 32.6525 50.2483 31.1064 48.3406 31.1064Z" fill="#F05442"/>
<path fill-rule="evenodd" clip-rule="evenodd" d="M18.9805 49.1421V42.8887C18.9805 41.1483 20.4243 39.7462 22.2204 39.7462H33.0112C34.8073 39.7462 36.2511 41.1448 36.2511 42.8887V49.1421" fill="#E0786C"/>
<path d="M18.9805 49.1421V42.8887C18.9805 41.1483 20.4243 39.7462 22.2204 39.7462H33.0112C34.8073 39.7462 36.2511 41.1448 36.2511 42.8887V49.1421" stroke="#552F2B" stroke-linecap="round" stroke-linejoin="round"/>
<path fill-rule="evenodd" clip-rule="evenodd" d="M12.1344 89.8897V65.0438C12.1344 62.523 14.2068 60.4925 16.7801 60.4925H38.4688C39.073 60.4857 39.6725 60.5983 40.2332 60.8234C40.7938 61.0486 41.3046 61.382 41.7361 61.8048C42.1677 62.2275 42.5116 62.7315 42.7481 63.2873C42.9846 63.8431 43.1091 64.4398 43.1145 65.0438V89.8897" fill="#E0786C"/>
<path d="M12.1344 89.8897V65.0438C12.1344 62.523 14.2068 60.4925 16.7801 60.4925H38.4688C39.073 60.4857 39.6725 60.5983 40.2332 60.8234C40.7938 61.0486 41.3046 61.382 41.7361 61.8048C42.1677 62.2275 42.5116 62.7315 42.7481 63.2873C42.9846 63.8431 43.1091 64.4398 43.1145 65.0438V89.8897" stroke="#552F2B" stroke-linejoin="round"/>
<path fill-rule="evenodd" clip-rule="evenodd" d="M12.5179 67.3649H42.731H12.5179ZM34.531 66.5636V72.5481V66.5636Z" fill="#E0786C"/>
<path d="M12.5179 67.3649H42.731M34.531 66.5636V72.5481" stroke="#552F2B"/>
<path d="M3.45416 50.1024H51.7947" stroke="#552F2B"/>
<path d="M12.0722 94.9904C13.9798 94.9904 15.5263 93.4444 15.5263 91.5372C15.5263 89.6301 13.9798 88.084 12.0722 88.084C10.1645 88.084 8.61804 89.6301 8.61804 91.5372C8.61804 93.4444 10.1645 94.9904 12.0722 94.9904Z" fill="#FC7262" stroke="#F8604E" stroke-linecap="round" stroke-linejoin="round"/>
<path d="M43.1594 94.9904C45.0671 94.9904 46.6135 93.4444 46.6135 91.5372C46.6135 89.6301 45.0671 88.084 43.1594 88.084C41.2517 88.084 39.7053 89.6301 39.7053 91.5372C39.7053 93.4444 41.2517 94.9904 43.1594 94.9904Z" fill="#FC7262" stroke="#F8604E" stroke-linecap="round" stroke-linejoin="round"/>
<path d="M72.9513 75.9423H67.0137V79.8996H72.9513V75.9423Z" fill="#F8604E" fill-opacity="0.976"/>
</svg>
