<svg width="80" height="80" viewBox="0 0 80 80" fill="none" xmlns="http://www.w3.org/2000/svg">
<g clip-path="url(#clip0_440_311)">
<path d="M28.125 17.5C32.9575 17.5 36.875 13.5825 36.875 8.75C36.875 3.91751 32.9575 0 28.125 0C23.2925 0 19.375 3.91751 19.375 8.75C19.375 13.5825 23.2925 17.5 28.125 17.5Z" fill="#7BB7D5"/>
<path d="M61.875 45H51.875C51.5435 45 51.2255 44.8683 50.9911 44.6339C50.7567 44.3995 50.625 44.0815 50.625 43.75V31.25C50.625 30.9185 50.7567 30.6005 50.9911 30.3661C51.2255 30.1317 51.5435 30 51.875 30H61.875C62.2065 30 62.5245 30.1317 62.7589 30.3661C62.9933 30.6005 63.125 30.9185 63.125 31.25V43.75C63.125 44.0815 62.9933 44.3995 62.7589 44.6339C62.5245 44.8683 62.2065 45 61.875 45ZM53.125 42.5H60.625V32.5H53.125V42.5Z" fill="#FDFCDF"/>
<path d="M60 30.6875C59.8482 29.8741 59.38 29.1542 58.6981 28.6855C58.0162 28.2169 57.1762 28.0378 56.3625 28.1875L44.6 30.325L38.625 21.65C38.625 21.55 38.475 21.45 38.4 21.35C38.0474 20.9267 37.6059 20.5863 37.1068 20.3529C36.6077 20.1196 36.0634 19.9991 35.5125 20H20.7125C20.2509 19.9995 19.7933 20.0843 19.3625 20.25C18.5294 20.5706 17.8379 21.1778 17.4125 21.9625L10.45 34.6375L10.3625 34.7875C10.1678 35.1516 10.0487 35.5513 10.0125 35.9625L8.76247 49.7125C8.68622 50.5413 8.94234 51.3665 9.47447 52.0064C10.0066 52.6464 10.7712 53.0488 11.6 53.125C12.4288 53.2013 13.2539 52.9451 13.8939 52.413C14.5339 51.8809 14.9362 51.1163 15.0125 50.2875L16.1875 37.3125L18.8625 33.3L18.125 51.25V76.25C18.0985 77.2446 18.4681 78.2089 19.1526 78.9309C19.8371 79.653 20.7804 80.0735 21.775 80.1C22.7695 80.1265 23.7339 79.7569 24.4559 79.0724C25.1779 78.3879 25.5985 77.4446 25.625 76.45L26.875 53.75H29.375L30.625 76.45C30.6515 77.4446 31.072 78.3879 31.794 79.0724C32.516 79.7569 33.4804 80.1265 34.475 80.1C35.4695 80.0735 36.4128 79.653 37.0973 78.9309C37.7818 78.2089 38.1515 77.2446 38.125 76.25V51.25L37.35 31.7375L40.625 35.625L40.7375 35.75C41.0881 36.1766 41.5468 36.5014 42.0656 36.6905C42.5845 36.8796 43.1446 36.926 43.6875 36.825L57.4375 34.325C57.8458 34.2571 58.2366 34.1087 58.5871 33.8884C58.9377 33.6682 59.2409 33.3805 59.4794 33.0421C59.7178 32.7037 59.8866 32.3212 59.9759 31.917C60.0653 31.5128 60.0735 31.0949 60 30.6875Z" fill="#2FB0F0"/>
<path d="M49.375 80C50.7557 80 51.875 78.8807 51.875 77.5C51.875 76.1193 50.7557 75 49.375 75C47.9943 75 46.875 76.1193 46.875 77.5C46.875 78.8807 47.9943 80 49.375 80Z" fill="#0C6998"/>
<path d="M64.375 80C65.7557 80 66.875 78.8807 66.875 77.5C66.875 76.1193 65.7557 75 64.375 75C62.9943 75 61.875 76.1193 61.875 77.5C61.875 78.8807 62.9943 80 64.375 80Z" fill="#0C6998"/>
<path d="M68.125 40H45.625C44.2443 40 43.125 41.1193 43.125 42.5V75C43.125 76.3807 44.2443 77.5 45.625 77.5H68.125C69.5057 77.5 70.625 76.3807 70.625 75V42.5C70.625 41.1193 69.5057 40 68.125 40Z" fill="#E0786C"/>
<path d="M49.375 70C49.0435 70 48.7255 69.8683 48.4911 69.6339C48.2567 69.3995 48.125 69.0815 48.125 68.75V48.75C48.125 48.4185 48.2567 48.1005 48.4911 47.8661C48.7255 47.6317 49.0435 47.5 49.375 47.5C49.7065 47.5 50.0245 47.6317 50.2589 47.8661C50.4933 48.1005 50.625 48.4185 50.625 48.75V68.75C50.625 69.0815 50.4933 69.3995 50.2589 69.6339C50.0245 69.8683 49.7065 70 49.375 70ZM56.875 70C56.5435 70 56.2255 69.8683 55.9911 69.6339C55.7567 69.3995 55.625 69.0815 55.625 68.75V48.75C55.625 48.4185 55.7567 48.1005 55.9911 47.8661C56.2255 47.6317 56.5435 47.5 56.875 47.5C57.2065 47.5 57.5245 47.6317 57.7589 47.8661C57.9933 48.1005 58.125 48.4185 58.125 48.75V68.75C58.125 69.0815 57.9933 69.3995 57.7589 69.6339C57.5245 69.8683 57.2065 70 56.875 70ZM64.375 70C64.0435 70 63.7255 69.8683 63.4911 69.6339C63.2567 69.3995 63.125 69.0815 63.125 68.75V48.75C63.125 48.4185 63.2567 48.1005 63.4911 47.8661C63.7255 47.6317 64.0435 47.5 64.375 47.5C64.7065 47.5 65.0245 47.6317 65.2589 47.8661C65.4933 48.1005 65.625 48.4185 65.625 48.75V68.75C65.625 69.0815 65.4933 69.3995 65.2589 69.6339C65.0245 69.8683 64.7065 70 64.375 70Z" fill="#FDFCDF"/>
</g>
<defs>
<clipPath id="clip0_440_311">
<rect width="80" height="80" fill="white"/>
</clipPath>
</defs>
</svg>
