<svg width="57" height="55" viewBox="0 0 57 55" fill="none" xmlns="http://www.w3.org/2000/svg">
<path d="M49.1 4.55127H7.56667C6.88594 4.55127 6.2331 4.81499 5.75176 5.28443C5.27042 5.75386 5 6.39055 5 7.05442V47.56C5 48.2239 5.27042 48.8606 5.75176 49.33C6.2331 49.7994 6.88594 50.0632 7.56667 50.0632H29.92V32.4273H23.8533V25.6005H29.92V20.4804C29.7943 19.2784 29.9398 18.064 30.3463 16.9226C30.7528 15.7812 31.4105 14.7403 32.2731 13.873C33.1357 13.0057 34.1825 12.333 35.3399 11.902C36.4974 11.471 37.7375 11.2922 38.9733 11.3781C40.7894 11.3672 42.6047 11.4583 44.41 11.6511V17.7952H40.7C37.76 17.7952 37.2 19.1606 37.2 21.1404V25.5322H44.2L43.29 32.359H37.2V50.0632H49.1C49.4371 50.0632 49.7708 49.9984 50.0822 49.8726C50.3936 49.7468 50.6766 49.5624 50.9149 49.33C51.1532 49.0976 51.3423 48.8216 51.4713 48.5179C51.6003 48.2142 51.6667 47.8887 51.6667 47.56V7.05442C51.6667 6.7257 51.6003 6.4002 51.4713 6.09651C51.3423 5.79281 51.1532 5.51687 50.9149 5.28443C50.6766 5.05199 50.3936 4.86761 50.0822 4.74181C49.7708 4.61602 49.4371 4.55127 49.1 4.55127Z" fill="#FDFCDF"/>
</svg>
