<svg width="29" height="28" viewBox="0 0 29 28" fill="none" xmlns="http://www.w3.org/2000/svg">
<path d="M20.8666 17.0917H19.5922L19.1405 16.6746C20.776 14.8578 21.6749 12.5383 21.6731 10.1395C21.6731 8.15334 21.0582 6.2118 19.906 4.56038C18.7539 2.90896 17.1163 1.62183 15.2004 0.861768C13.2845 0.101702 11.1763 -0.0971656 9.14238 0.290312C7.10845 0.67779 5.24018 1.63421 3.7738 3.03863C2.30742 4.44305 1.30881 6.23238 0.904233 8.18037C0.499661 10.1283 0.707302 12.1475 1.5009 13.9824C2.2945 15.8174 3.63841 17.3858 5.36268 18.4892C7.08696 19.5927 9.11416 20.1816 11.1879 20.1816C13.785 20.1816 16.1724 19.2701 18.0114 17.7561L18.4469 18.1886V19.4092L26.5124 27.1184L28.9159 24.8165L20.8666 17.0917ZM11.1879 17.0917C7.17131 17.0917 3.92897 13.9864 3.92897 10.1395C3.92897 6.29258 7.17131 3.18724 11.1879 3.18724C15.2046 3.18724 18.4469 6.29258 18.4469 10.1395C18.4469 13.9864 15.2046 17.0917 11.1879 17.0917Z" fill="#F8F8F8"/>
</svg>
